<?xml version="1.0" encoding="UTF-8"?>
<!DOCTYPE svg PUBLIC "-//W3C//DTD SVG 1.1//EN" "http://www.w3.org/Graphics/SVG/1.1/DTD/svg11.dtd">
<svg xmlns="http://www.w3.org/2000/svg" version="1.1" width="49px" height="47px" style="shape-rendering:geometricPrecision; text-rendering:geometricPrecision; image-rendering:optimizeQuality; fill-rule:evenodd; clip-rule:evenodd" xmlns:xlink="http://www.w3.org/1999/xlink">
<g><path style="opacity:1" fill="#f9fafd" d="M -0.5,-0.5 C 15.8333,-0.5 32.1667,-0.5 48.5,-0.5C 48.5,15.1667 48.5,30.8333 48.5,46.5C 32.1667,46.5 15.8333,46.5 -0.5,46.5C -0.5,30.8333 -0.5,15.1667 -0.5,-0.5 Z"/></g>
<g><path style="opacity:1" fill="#224fbe" d="M 19.5,0.5 C 31.9599,-0.212396 40.7932,5.12094 46,16.5C 48.0127,36.8203 38.846,46.3203 18.5,45C 4.4523,38.8913 -0.381037,28.3913 4,13.5C 7.84312,7.48209 13.0098,3.14875 19.5,0.5 Z"/></g>
<g><path style="opacity:1" fill="#e1e6f5" d="M 21.5,14.5 C 28.2164,13.6459 30.5498,16.3126 28.5,22.5C 31.8027,29.7051 29.4694,32.8718 21.5,32C 18.6162,30.9626 17.9496,29.1293 19.5,26.5C 20.8745,29.7291 23.2079,30.8958 26.5,30C 28.2731,26.6161 27.2731,24.4494 23.5,23.5C 28.9936,20.0397 28.6603,17.873 22.5,17C 21.3816,18.0736 20.3816,19.2402 19.5,20.5C 19.1667,20 18.8333,19.5 18.5,19C 19.3146,17.3566 20.3146,15.8566 21.5,14.5 Z"/></g>
</svg>
