<svg width="21" height="21" viewBox="0 0 21 21" fill="none" xmlns="http://www.w3.org/2000/svg">
<circle cx="10.1591" cy="10.1591" r="10.1591" fill="#102E6E"/>
<path d="M10.7531 4.06363C10.8556 4.15952 10.968 4.2455 11.054 4.35462C11.9898 5.5285 12.8562 6.74868 13.5936 8.05814C14.0301 8.83191 14.4136 9.63214 14.6749 10.4853C14.9526 11.388 15.0254 12.2973 14.7443 13.2133C14.5327 13.9077 14.1689 14.5162 13.6465 15.0254C13.0744 15.5842 12.3999 15.9579 11.6195 16.1397C10.8556 16.3183 10.0984 16.2886 9.35437 16.0505C8.46817 15.7628 7.74069 15.2436 7.19839 14.4831C6.50728 13.5175 6.25267 12.4461 6.45107 11.2723C6.60318 10.3662 6.95038 9.53293 7.36372 8.71948C8.18379 7.10911 9.2254 5.64093 10.353 4.23558C10.4059 4.16614 10.4886 4.12315 10.558 4.06363C10.6208 4.06363 10.6837 4.06363 10.7498 4.06363H10.7531ZM8.19702 11.2127C8.20032 11.1268 8.20363 11.0375 8.21024 10.9515C8.21686 10.8424 8.17718 10.763 8.06475 10.7432C7.95232 10.7234 7.88288 10.7829 7.84981 10.8854C7.79029 11.0739 7.71754 11.259 7.67125 11.4508C7.49599 12.1419 7.58528 12.8 7.96224 13.4051C8.63681 14.4831 9.9628 15.0055 11.1962 14.6914C11.2954 14.665 11.3847 14.6286 11.3748 14.5095C11.3682 14.3905 11.2756 14.3607 11.1731 14.3475C10.5845 14.2748 10.0389 14.083 9.55607 13.7391C8.69302 13.1207 8.22678 12.2841 8.19702 11.2161V11.2127Z" fill="white"/>
</svg>
