<svg width="15" height="21" viewBox="0 0 15 21" fill="none" xmlns="http://www.w3.org/2000/svg">
<path d="M7.52322 0C7.6998 0.165188 7.89347 0.313287 8.04157 0.501259C9.65358 2.52339 11.146 4.62526 12.4162 6.88092C13.1681 8.21382 13.8288 9.59228 14.2788 11.0619C14.7573 12.6169 14.8826 14.1834 14.3985 15.7612C14.0339 16.9574 13.4073 18.0055 12.5073 18.8827C11.5219 19.8453 10.3599 20.489 9.01561 20.8023C7.69981 21.1099 6.39539 21.0586 5.11376 20.6485C3.5872 20.1529 2.33405 19.2586 1.39988 17.9485C0.209392 16.2852 -0.229207 14.4397 0.112561 12.4176C0.374583 10.8568 0.972673 9.4214 1.68469 8.02015C3.09733 5.24614 4.89161 2.71705 6.83399 0.296199C6.92513 0.17658 7.06753 0.10253 7.18715 0C7.29538 0 7.40361 0 7.51753 0H7.52322ZM3.12012 12.315C3.12581 12.1669 3.13151 12.0131 3.14291 11.865C3.1543 11.6771 3.08594 11.5404 2.89227 11.5062C2.69861 11.472 2.57898 11.5745 2.52202 11.7511C2.41949 12.0758 2.29418 12.3948 2.21443 12.7252C1.91254 13.9156 2.06634 15.0492 2.7157 16.0916C3.87771 17.9485 6.16185 18.8485 8.28651 18.3074C8.45739 18.2618 8.61119 18.1991 8.5941 17.9941C8.5827 17.789 8.42321 17.7377 8.24663 17.715C7.23272 17.5896 6.29286 17.2593 5.46123 16.6669C3.97454 15.6017 3.17138 14.1606 3.12012 12.3207V12.315Z" fill="white"/>
</svg>
