<svg width="35" height="35" viewBox="0 0 35 35" fill="none" xmlns="http://www.w3.org/2000/svg">
<circle cx="17.5" cy="17.5" r="17.5" fill="#D44848"/>
<path d="M18.5232 7C18.6998 7.16519 18.8935 7.31329 19.0416 7.50126C20.6536 9.52339 22.146 11.6253 23.4162 13.8809C24.1681 15.2138 24.8288 16.5923 25.2788 18.0619C25.7573 19.6169 25.8826 21.1834 25.3985 22.7612C25.0339 23.9574 24.4073 25.0055 23.5073 25.8827C22.5219 26.8453 21.3599 27.489 20.0156 27.8023C18.6998 28.1099 17.3954 28.0586 16.1138 27.6485C14.5872 27.1529 13.334 26.2586 12.3999 24.9485C11.2094 23.2852 10.7708 21.4397 11.1126 19.4176C11.3746 17.8568 11.9727 16.4214 12.6847 15.0202C14.0973 12.2461 15.8916 9.71705 17.834 7.2962C17.9251 7.17658 18.0675 7.10253 18.1872 7C18.2954 7 18.4036 7 18.5175 7H18.5232ZM14.1201 19.315C14.1258 19.1669 14.1315 19.0131 14.1429 18.865C14.1543 18.6771 14.0859 18.5404 13.8923 18.5062C13.6986 18.472 13.579 18.5745 13.522 18.7511C13.4195 19.0758 13.2942 19.3948 13.2144 19.7252C12.9125 20.9156 13.0663 22.0492 13.7157 23.0916C14.8777 24.9485 17.1619 25.8485 19.2865 25.3074C19.4574 25.2618 19.6112 25.1991 19.5941 24.9941C19.5827 24.789 19.4232 24.7377 19.2466 24.715C18.2327 24.5896 17.2929 24.2593 16.4612 23.6669C14.9745 22.6017 14.1714 21.1606 14.1201 19.3207V19.315Z" fill="white"/>
</svg>
