<svg width="20" height="20" viewBox="0 0 20 20" fill="none" xmlns="http://www.w3.org/2000/svg">
<path d="M2.14968 8.29808C1.82032 8.57451 1.53212 8.82153 1.23805 9.06267C0.873395 9.36851 0.444045 9.35087 0.167614 9.0215C-0.102935 8.69802 -0.0382388 8.27455 0.326415 7.96283C2.8437 5.82784 5.36687 3.69874 7.88415 1.56963C8.39584 1.14028 8.90753 0.70505 9.41923 0.2757C9.85446 -0.0889534 10.1485 -0.0948349 10.5838 0.2757C13.5363 2.76946 16.4888 5.2691 19.4354 7.76286C19.5531 7.86285 19.6766 7.95695 19.7883 8.0687C20.1294 8.41571 20.0353 8.98621 19.606 9.19795C19.4648 9.26853 19.359 9.26853 19.2355 9.14501C18.2121 8.15104 16.9946 7.5276 15.5889 7.25705C12.0071 6.56891 8.41349 8.79212 7.42539 12.321C6.95487 13.9914 7.08427 15.6264 7.78417 17.2144C7.83122 17.3203 7.85474 17.4379 7.86063 17.5556C7.87239 17.8908 7.86651 18.2261 7.86063 18.5613C7.84886 19.3553 7.2313 19.9729 6.4373 19.9788C5.73152 19.9846 5.02574 19.9846 4.31996 19.9788C3.08484 19.967 2.15556 19.0377 2.14968 17.7967C2.14968 14.7266 2.14968 11.6564 2.14968 8.58627C2.14968 8.50393 2.14968 8.42747 2.14968 8.2922V8.29808Z" fill="white"/>
<path d="M20 14.2852C20 17.4142 17.4416 19.9844 14.3126 19.9844C11.1366 19.9844 8.57812 17.4318 8.57812 14.2617C8.57812 11.1327 11.1366 8.5625 14.2655 8.5625C17.4416 8.5625 20 11.1092 20 14.2793V14.2852ZM15.0184 11.4033C15.0066 11.3503 14.9949 11.2915 14.9772 11.2386C14.8772 10.9092 14.5949 10.6975 14.2655 10.7093C13.9362 10.721 13.648 10.9504 13.5951 11.2856C13.5715 11.4327 13.5127 11.4738 13.3833 11.515C12.6011 11.7679 12.0953 12.5149 12.1541 13.3265C12.207 14.1382 12.8069 14.8087 13.6186 14.9557C13.7656 14.9792 13.9185 14.9616 14.0597 14.991C14.3891 15.0616 14.8831 14.7557 14.9948 15.338C15.0478 15.6262 14.836 15.6968 14.0538 15.6968C13.8832 15.6968 13.7127 15.6909 13.5421 15.6968C13.201 15.7144 12.9246 15.9732 12.8716 16.3084C12.8246 16.6378 13.0187 16.9672 13.348 17.0789C13.4186 17.1024 13.4892 17.1142 13.5656 17.1377C13.5774 17.1907 13.5892 17.2495 13.6068 17.3024C13.7009 17.6318 13.9891 17.8435 14.3185 17.8318C14.642 17.82 14.936 17.5906 14.989 17.2554C15.0125 17.1083 15.0772 17.0672 15.2007 17.026C15.9829 16.7731 16.4829 16.0261 16.4299 15.2145C16.377 14.4087 15.783 13.7323 14.9831 13.5971C14.6772 13.5441 14.3596 13.5618 14.0479 13.5559C13.7421 13.55 13.5774 13.4324 13.5774 13.203C13.5774 12.9736 13.7421 12.8442 14.0362 12.8442C14.3655 12.8442 14.689 12.8501 15.0184 12.8442C15.4066 12.8325 15.7065 12.5208 15.7124 12.1443C15.7124 11.7679 15.4771 11.5091 15.0125 11.4033H15.0184Z" fill="white"/>
</svg>
