<svg width="62" height="59" viewBox="0 0 62 59" fill="none" xmlns="http://www.w3.org/2000/svg">
<path d="M31.248 5.8999C33.6722 7.6876 36.0964 9.4812 38.5206 11.2689C39.7296 12.1657 40.9386 13.0684 42.2034 14.0065C42.222 13.8413 42.2468 13.7292 42.2468 13.6171C42.2468 12.5964 42.2468 11.5757 42.2468 10.5491C42.2468 9.7349 42.6064 9.3927 43.4434 9.3927C45.229 9.3927 47.0084 9.3927 48.794 9.3927C49.6062 9.3927 49.972 9.7408 49.972 10.5196C49.972 13.446 49.9844 16.3665 49.9658 19.2929C49.9658 19.6646 50.096 19.8888 50.3936 20.1071C52.1606 21.3992 53.9152 22.709 55.6698 24.0188C56.5068 24.6442 56.5378 25.1398 55.8 25.8478C54.7894 26.8154 53.7664 27.783 52.7496 28.7506C52.0738 29.3937 51.8568 29.435 50.964 29.0633V29.5766C50.964 31.7478 50.964 33.9131 50.964 36.0843C50.964 36.2082 50.964 36.338 50.964 36.4619C50.9268 37.0047 50.5238 37.3941 49.9906 37.4059C49.4388 37.4177 48.9986 37.0106 48.9862 36.4501C48.9738 35.2111 48.9862 33.9662 48.9862 32.7272C48.9862 31.1106 48.9924 29.4881 48.9738 27.8715C48.9738 27.6827 48.8622 27.4349 48.7134 27.3228C42.811 22.9214 36.9024 18.5318 30.9504 14.1127C30.318 14.5788 29.6794 15.0449 29.047 15.5169C23.7894 19.4227 18.5318 23.3344 13.268 27.2343C13.0138 27.4231 12.8898 27.6119 12.8898 27.9364C12.9022 35.9073 12.896 43.8782 12.896 51.8491V52.2975H15.6736C15.6736 52.1146 15.6736 51.9494 15.6736 51.7783C15.6736 49.1528 15.6736 46.5273 15.6736 43.9018C15.6736 43.7897 15.6736 43.6835 15.6736 43.5714C15.686 42.9342 16.0952 42.5094 16.678 42.5153C17.2484 42.5212 17.6452 42.9401 17.6514 43.5537C17.6576 44.2617 17.6514 44.9697 17.6514 45.6777C17.6514 47.7073 17.6514 49.731 17.6514 51.7606C17.6514 51.9317 17.6514 52.1028 17.6514 52.2975H48.9738C48.9738 52.1146 48.9738 51.9435 48.9738 51.7724C48.9738 49.082 48.9738 46.3975 48.9738 43.7071C48.9738 43.241 49.1288 42.8752 49.6 42.6864C50.2572 42.4209 50.9454 42.8752 50.9516 43.6068C50.9702 44.9107 50.9516 46.2146 50.9516 47.5185C50.9516 49.1056 50.9516 50.6868 50.9516 52.327C51.8258 52.327 52.6628 52.327 53.4998 52.327C54.0764 52.327 54.6592 52.3211 55.2358 52.327C55.8682 52.3388 56.3084 52.7341 56.3022 53.2769C56.3022 53.8197 55.862 54.1914 55.2234 54.215C55.1428 54.215 55.056 54.215 54.9754 54.215C38.9546 54.215 22.9338 54.215 6.913 54.2268C6.3054 54.2268 5.859 54.0675 5.5676 53.5542V52.9878C5.859 52.4745 6.3054 52.2975 6.913 52.3152C8.0662 52.3506 9.2256 52.327 10.3788 52.327C10.5524 52.327 10.726 52.327 10.8934 52.327V29.0869C10.0006 29.4468 9.8146 29.4055 9.1016 28.7329C8.556 28.2137 7.998 27.6945 7.4586 27.1635C6.82 26.5322 6.1938 25.8891 5.5614 25.2519C5.5614 25.0631 5.5614 24.8743 5.5614 24.6855C5.8094 24.4436 6.0326 24.1663 6.3116 23.9598C12.121 19.6351 17.9366 15.3104 23.7584 10.9916C26.0462 9.2924 28.3464 7.605 30.6342 5.9117C30.8326 5.9117 31.031 5.9117 31.2294 5.9117L31.248 5.8999ZM30.9504 8.0416C23.2996 13.7292 15.6922 19.3814 8.1654 24.9746C8.9094 25.6885 9.6038 26.3493 10.3168 27.0337C10.4036 26.9688 10.5338 26.8803 10.664 26.7859C17.1182 21.9892 23.5724 17.1984 30.0266 12.4017C30.8016 11.8235 31.093 11.8235 31.8556 12.3899C37.6216 16.6733 43.3814 20.9567 49.1474 25.2401C49.9782 25.8596 50.809 26.4673 51.553 27.016C52.297 26.308 52.9976 25.6413 53.7106 24.9569C46.1714 19.3578 38.5764 13.7115 30.9504 8.0475V8.0416ZM47.9632 18.284V11.2984H44.237C44.237 12.6672 44.237 14.0124 44.2432 15.3635C44.2432 15.452 44.3238 15.57 44.4044 15.629C45.57 16.5022 46.7356 17.3695 47.9632 18.284Z" fill="#172F5F"/>
<path d="M30.9504 46.4624C27.8938 46.4624 24.8434 46.4624 21.7868 46.4624C20.7638 46.4624 20.4414 46.1674 20.4414 45.2057C20.4414 39.3765 20.4414 33.5473 20.4414 27.7181C20.4414 26.7623 20.7576 26.4614 21.7806 26.4614C27.8876 26.4614 34.0008 26.4614 40.1078 26.4614C41.1494 26.4614 41.4532 26.7564 41.4532 27.7594C41.4532 33.5591 41.4532 39.3588 41.4532 45.1526C41.4532 46.1792 41.1556 46.4565 40.0582 46.4565C37.0202 46.4565 33.9822 46.4565 30.9442 46.4565L30.9504 46.4624ZM29.9336 28.3848H22.4626V35.4943H29.9336V28.3848ZM39.4382 35.5002V28.3907H31.9672V35.5002H39.4382ZM29.9212 44.5567V37.4472H22.4502V44.5567H29.9212ZM31.9486 44.539H39.4382V37.4472H31.9486V44.539Z" fill="#172F5F"/>
<path d="M16.6779 38.7925C17.2173 38.7925 17.6575 39.1878 17.6699 39.7011C17.6823 40.2262 17.2297 40.6746 16.6841 40.6805C16.1385 40.6805 15.6797 40.2321 15.6921 39.7129C15.7045 39.1996 16.1323 38.7984 16.6779 38.7925Z" fill="#172F5F"/>
<path d="M50.9702 40.2497C50.964 40.7689 50.4866 41.1996 49.941 41.176C49.414 41.1524 48.9862 40.7217 48.9924 40.2202C48.9986 39.701 49.476 39.2703 50.0216 39.2939C50.5486 39.3175 50.9764 39.7482 50.9702 40.2497Z" fill="#172F5F"/>
</svg>
