<svg width="28" height="27" viewBox="0 0 28 27" fill="none" xmlns="http://www.w3.org/2000/svg">
<path d="M27.7143 12.3733C27.5106 12.6326 27.3255 12.9103 27.0971 13.1387C25.9922 14.2559 24.8873 15.367 23.7701 16.4718C23.1529 17.0829 22.2023 16.8298 22.0048 16.0151C21.9122 15.6324 22.0357 15.3052 22.3072 15.0275C22.8628 14.472 23.4183 13.9164 23.9738 13.3609C24.0355 13.2992 24.0911 13.2313 24.1898 13.1264C24.0417 13.1264 23.9491 13.1264 23.8504 13.1264C21.6221 13.1264 19.3939 13.1264 17.1656 13.1264C16.4187 13.1264 15.9249 12.4844 16.1286 11.7931C16.2644 11.3487 16.6533 11.0709 17.1533 11.0709C18.4186 11.0709 19.6778 11.0709 20.9431 11.0709C22.0048 11.0709 23.0726 11.0709 24.1837 11.0709C24.1096 10.9845 24.0664 10.9228 24.0108 10.8673C23.4553 10.3117 22.8998 9.75621 22.3443 9.20069C21.8752 8.73158 21.8505 8.11434 22.2764 7.68844C22.6961 7.26254 23.3319 7.28106 23.7948 7.74399C24.9861 8.9291 26.1712 10.1142 27.3501 11.3117C27.4983 11.4598 27.5909 11.6573 27.7143 11.8363V12.3795V12.3733Z" fill="white"/>
<path d="M6.76501 2.34915C7.40695 2.62691 8.03036 2.86147 8.61675 3.16392C9.36979 3.55278 10.1105 3.96634 10.8203 4.4231C11.8573 5.08972 12.5424 6.07732 13.1288 7.13898C13.9374 8.59568 14.351 10.1635 14.425 11.8177C14.5176 13.8916 14.6102 15.9656 14.6411 18.0395C14.6596 19.1567 14.5546 20.274 14.5053 21.3912C14.5053 21.5085 14.4929 21.6196 14.4868 21.7554C15.5854 21.5887 16.4126 21.0208 17.11 20.2184C17.8014 19.4222 18.0853 18.4654 18.1779 17.4408C18.2273 16.91 18.2828 16.3791 18.3445 15.8545C18.4063 15.3051 18.8877 14.8978 19.4309 14.9348C19.9617 14.9657 20.4432 15.4224 20.3876 15.9532C20.2703 17.0643 20.2333 18.2124 19.9062 19.2617C19.1099 21.7739 17.3755 23.3417 14.7337 23.8046C14.3818 23.8663 14.1966 23.9713 14.1102 24.3416C14.0176 24.7181 13.8325 25.0885 13.635 25.4218C12.8943 26.6748 11.8573 27.1748 10.4253 26.9464C7.94395 26.5452 5.691 25.5576 3.64175 24.1194C2.56157 23.3602 1.87643 22.2615 1.29004 21.0949C0.604901 19.7308 0.290105 18.2803 0.216036 16.768C0.129622 14.978 0.00617245 13.1818 0 11.3856C0 9.37341 0.0678971 7.34267 0.530831 5.386C1.16659 2.7195 2.87636 1.0159 5.59224 0.466555C8.80809 -0.181553 12.0363 -0.144518 15.246 0.515935C17.0298 0.880109 18.3075 1.97881 19.2766 3.47871C19.9 4.43544 20.1222 5.51562 20.2395 6.62667C20.2889 7.09577 20.3321 7.55871 20.3876 8.02781C20.4617 8.70061 20.079 9.21292 19.4494 9.28082C18.8692 9.33637 18.4063 8.89196 18.3322 8.24385C18.2396 7.42908 18.1717 6.60815 18.0174 5.80573C17.7088 4.20089 16.2397 2.7874 14.6411 2.48495C12.061 1.99732 9.47472 1.96029 6.88229 2.31829C6.8576 2.31829 6.83291 2.33681 6.77118 2.35533L6.76501 2.34915Z" fill="white"/>
</svg>
