<svg width="32" height="32" viewBox="0 0 32 32" fill="none" xmlns="http://www.w3.org/2000/svg">
<rect width="32" height="32" fill="#1E1E1E"/>
<g id="Menu 1" clip-path="url(#clip0_0_1)">
<rect width="390" height="844" transform="translate(-42 -401)" fill="#474747" fill-opacity="0.2"/>
<g id="Rectangle 41" filter="url(#filter0_d_0_1)">
<rect x="-47" y="-401" width="349" height="982" fill="#102E6E"/>
</g>
<g id="contacto 1">
<path id="Vector" d="M8.33915 24.8319C7.41755 24.6271 6.59835 24.2559 5.89435 23.6735C4.50555 22.5215 3.77595 21.0367 3.75675 19.2383C3.73115 16.1791 3.73115 13.1199 3.75675 10.0671C3.77595 7.16791 5.82395 4.83191 8.69115 4.39671C8.99195 4.35191 9.29915 4.33911 9.59995 4.33911C14.0991 4.33911 18.5983 4.33911 23.0912 4.33911C25.9327 4.33911 28.2367 6.18231 28.8127 8.92151C28.8959 9.31191 28.9343 9.72151 28.9343 10.1183C28.9471 13.1327 28.9471 16.1471 28.9343 19.1551C28.9215 22.0031 27.0207 24.3007 24.2367 24.8383C23.8463 24.9151 23.4367 24.9279 23.0399 24.9343C21.0175 24.9407 18.9951 24.9343 16.9791 24.9471C16.8063 24.9471 16.6079 25.0047 16.4607 25.1007C14.3679 26.4831 12.2815 27.8847 10.1887 29.2735C9.46555 29.7535 8.59515 29.4783 8.37755 28.6911C8.33915 28.5503 8.33275 28.3903 8.33275 28.2431C8.33275 27.2127 8.33275 26.1887 8.33275 25.1583C8.33275 25.0623 8.33275 24.9599 8.33275 24.8383L8.33915 24.8319ZM16.3455 13.4975C18.0095 13.4975 19.6735 13.4975 21.3375 13.4975C21.9711 13.4975 22.6047 13.5039 23.2447 13.4975C23.8015 13.4911 24.2687 13.0687 24.3455 12.5439C24.4287 11.9743 24.1151 11.4431 23.5839 11.2767C23.3983 11.2191 23.1999 11.2063 23.0015 11.2063C18.5663 11.2063 14.1311 11.2063 9.69595 11.2063C9.60635 11.2063 9.51675 11.2063 9.42715 11.2063C8.94075 11.2511 8.58235 11.4943 8.40955 11.9551C8.12155 12.7167 8.68475 13.4911 9.53595 13.4911C11.8079 13.4911 14.0799 13.4911 16.3519 13.4911L16.3455 13.4975ZM16.3455 18.0735C17.6511 18.0735 18.9567 18.0735 20.2623 18.0735C20.5055 18.0735 20.7423 18.0799 20.9855 18.0735C21.7407 18.0351 22.2463 17.3119 22.0223 16.5951C21.8623 16.0895 21.4335 15.8015 20.8255 15.8015C17.8495 15.8015 14.8735 15.8015 11.8911 15.8015C11.8207 15.8015 11.7503 15.8015 11.6735 15.8015C11.1743 15.8335 10.7583 16.1983 10.6559 16.6847C10.4959 17.4271 11.0207 18.0671 11.8079 18.0735C13.3183 18.0799 14.8287 18.0735 16.3391 18.0735H16.3455Z" fill="white"/>
</g>
</g>
<defs>
<filter id="filter0_d_0_1" x="-61" y="-413" width="377" height="1010" filterUnits="userSpaceOnUse" color-interpolation-filters="sRGB">
<feFlood flood-opacity="0" result="BackgroundImageFix"/>
<feColorMatrix in="SourceAlpha" type="matrix" values="0 0 0 0 0 0 0 0 0 0 0 0 0 0 0 0 0 0 127 0" result="hardAlpha"/>
<feMorphology radius="7" operator="dilate" in="SourceAlpha" result="effect1_dropShadow_0_1"/>
<feOffset dy="2"/>
<feGaussianBlur stdDeviation="3.5"/>
<feComposite in2="hardAlpha" operator="out"/>
<feColorMatrix type="matrix" values="0 0 0 0 0 0 0 0 0 0 0 0 0 0 0 0 0 0 0.25 0"/>
<feBlend mode="normal" in2="BackgroundImageFix" result="effect1_dropShadow_0_1"/>
<feBlend mode="normal" in="SourceGraphic" in2="effect1_dropShadow_0_1" result="shape"/>
</filter>
<clipPath id="clip0_0_1">
<rect width="390" height="844" fill="white" transform="translate(-42 -401)"/>
</clipPath>
</defs>
</svg>
