<svg width="21" height="21" viewBox="0 0 21 21" fill="none" xmlns="http://www.w3.org/2000/svg">
<circle cx="10.1591" cy="10.1591" r="10.1591" fill="#102E6E"/>
<path d="M5.89209 8.88082C5.70088 9.0413 5.53358 9.1847 5.36287 9.32469C5.15118 9.50223 4.90193 9.49199 4.74146 9.30079C4.5844 9.113 4.62196 8.86717 4.83364 8.68621C6.29498 7.44681 7.75972 6.21082 9.22106 4.97483C9.5181 4.72558 9.81515 4.47292 10.1122 4.22368C10.3649 4.01199 10.5356 4.00858 10.7882 4.22368C12.5022 5.67135 14.2162 7.12244 15.9268 8.57012C15.9951 8.62816 16.0668 8.68279 16.1317 8.74766C16.3297 8.94911 16.2751 9.2803 16.0258 9.40322C15.9439 9.44419 15.8824 9.44419 15.8107 9.37249C15.2166 8.79547 14.5099 8.43355 13.6938 8.27649C11.6145 7.87701 9.52835 9.16763 8.95474 11.2162C8.68159 12.1859 8.75671 13.1351 9.16301 14.0569C9.19033 14.1184 9.20399 14.1867 9.2074 14.255C9.21423 14.4496 9.21081 14.6442 9.2074 14.8388C9.20057 15.2998 8.84207 15.6583 8.38113 15.6617C7.97141 15.6651 7.56169 15.6651 7.15197 15.6617C6.43496 15.6549 5.8955 15.1154 5.89209 14.395C5.89209 12.6127 5.89209 10.8304 5.89209 9.04813C5.89209 9.00033 5.89209 8.95594 5.89209 8.87741V8.88082Z" fill="white"/>
<path d="M16.2546 12.3566C16.2546 14.173 14.7694 15.6651 12.9529 15.6651C11.1092 15.6651 9.62398 14.1832 9.62398 12.3429C9.62398 10.5265 11.1092 9.03442 12.9256 9.03442C14.7694 9.03442 16.2546 10.5128 16.2546 12.3532V12.3566ZM13.3627 10.6835C13.3558 10.6528 13.349 10.6187 13.3388 10.5879C13.2807 10.3967 13.1168 10.2738 12.9256 10.2807C12.7344 10.2875 12.5671 10.4206 12.5364 10.6153C12.5227 10.7006 12.4886 10.7245 12.4135 10.7484C11.9594 10.8952 11.6657 11.3289 11.6999 11.8C11.7306 12.2712 12.0789 12.6604 12.5501 12.7458C12.6354 12.7595 12.7242 12.7492 12.8061 12.7663C12.9973 12.8073 13.2841 12.6297 13.349 12.9677C13.3797 13.135 13.2568 13.176 12.8027 13.176C12.7037 13.176 12.6047 13.1726 12.5057 13.176C12.3076 13.1862 12.1472 13.3365 12.1164 13.5311C12.0891 13.7223 12.2018 13.9135 12.393 13.9784C12.434 13.992 12.4749 13.9989 12.5193 14.0125C12.5262 14.0432 12.533 14.0774 12.5432 14.1081C12.5979 14.2993 12.7652 14.4222 12.9564 14.4154C13.1442 14.4086 13.3149 14.2754 13.3456 14.0808C13.3593 13.9954 13.3968 13.9715 13.4685 13.9476C13.9226 13.8008 14.2128 13.3672 14.1821 12.896C14.1514 12.4283 13.8065 12.0356 13.3422 11.9571C13.1646 11.9264 12.9803 11.9366 12.7993 11.9332C12.6218 11.9298 12.5262 11.8615 12.5262 11.7283C12.5262 11.5952 12.6218 11.5201 12.7925 11.5201C12.9837 11.5201 13.1715 11.5235 13.3627 11.5201C13.588 11.5132 13.7621 11.3323 13.7656 11.1138C13.7656 10.8952 13.629 10.745 13.3593 10.6835H13.3627Z" fill="white"/>
</svg>
