<svg width="258" height="58" viewBox="0 0 258 58" fill="none" xmlns="http://www.w3.org/2000/svg">
<g filter="url(#filter0_d_23_933)">
<rect x="4" width="250" height="50" rx="20" fill="#2455BE"/>
</g>
<path d="M59.7559 17.7373C61.3906 17.7373 62.6592 18.168 63.5615 19.0293C64.4639 19.8906 64.9648 20.8691 65.0645 21.9648H63.3594C63.166 21.1328 62.7793 20.4736 62.1992 19.9873C61.625 19.501 60.8164 19.2578 59.7734 19.2578C58.502 19.2578 57.4736 19.7061 56.6885 20.6025C55.9092 21.4932 55.5195 22.8613 55.5195 24.707C55.5195 26.2188 55.8711 27.4463 56.5742 28.3896C57.2832 29.3271 58.3379 29.7959 59.7383 29.7959C61.0273 29.7959 62.0088 29.3008 62.6826 28.3105C63.04 27.7891 63.3066 27.1035 63.4824 26.2539H65.1875C65.0352 27.6133 64.5312 28.7529 63.6758 29.6729C62.6504 30.7803 61.2676 31.334 59.5273 31.334C58.0273 31.334 56.7676 30.8799 55.748 29.9717C54.4062 28.7705 53.7354 26.916 53.7354 24.4082C53.7354 22.5039 54.2393 20.9424 55.2471 19.7236C56.3369 18.3994 57.8398 17.7373 59.7559 17.7373ZM73.3262 24.0039C74.1465 24.0039 74.7939 23.8398 75.2686 23.5117C75.749 23.1836 75.9893 22.5918 75.9893 21.7363C75.9893 20.8164 75.6553 20.1895 74.9873 19.8555C74.6299 19.6797 74.1523 19.5918 73.5547 19.5918H69.2832V24.0039H73.3262ZM67.5342 18.0889H73.5107C74.4951 18.0889 75.3066 18.2324 75.9453 18.5195C77.1582 19.0703 77.7646 20.0869 77.7646 21.5693C77.7646 22.3428 77.6035 22.9756 77.2812 23.4678C76.9648 23.96 76.5195 24.3555 75.9453 24.6543C76.4492 24.8594 76.8271 25.1289 77.0791 25.4629C77.3369 25.7969 77.4805 26.3389 77.5098 27.0889L77.5713 28.8203C77.5889 29.3125 77.6299 29.6787 77.6943 29.9189C77.7998 30.3291 77.9873 30.5928 78.2568 30.71V31H76.1123C76.0537 30.8887 76.0068 30.7451 75.9717 30.5693C75.9365 30.3936 75.9072 30.0537 75.8838 29.5498L75.7783 27.3965C75.7373 26.5527 75.4238 25.9873 74.8379 25.7002C74.5039 25.542 73.9795 25.4629 73.2646 25.4629H69.2832V31H67.5342V18.0889ZM80.498 18.0889H89.9111V19.6709H82.2031V23.5908H89.3311V25.085H82.2031V29.4619H90.043V31H80.498V18.0889ZM98.9639 25.709L97.0039 20.0049L94.9209 25.709H98.9639ZM96.0898 18.0889H98.0674L102.752 31H100.836L99.5264 27.1328H94.4199L93.0225 31H91.2295L96.0898 18.0889ZM110.346 24.0039C111.166 24.0039 111.813 23.8398 112.288 23.5117C112.769 23.1836 113.009 22.5918 113.009 21.7363C113.009 20.8164 112.675 20.1895 112.007 19.8555C111.649 19.6797 111.172 19.5918 110.574 19.5918H106.303V24.0039H110.346ZM104.554 18.0889H110.53C111.515 18.0889 112.326 18.2324 112.965 18.5195C114.178 19.0703 114.784 20.0869 114.784 21.5693C114.784 22.3428 114.623 22.9756 114.301 23.4678C113.984 23.96 113.539 24.3555 112.965 24.6543C113.469 24.8594 113.847 25.1289 114.099 25.4629C114.356 25.7969 114.5 26.3389 114.529 27.0889L114.591 28.8203C114.608 29.3125 114.649 29.6787 114.714 29.9189C114.819 30.3291 115.007 30.5928 115.276 30.71V31H113.132C113.073 30.8887 113.026 30.7451 112.991 30.5693C112.956 30.3936 112.927 30.0537 112.903 29.5498L112.798 27.3965C112.757 26.5527 112.443 25.9873 111.857 25.7002C111.523 25.542 110.999 25.4629 110.284 25.4629H106.303V31H104.554V18.0889ZM122.527 18.0889H128.337C129.485 18.0889 130.411 18.4141 131.114 19.0645C131.817 19.709 132.169 20.6172 132.169 21.7891C132.169 22.7969 131.855 23.6758 131.229 24.4258C130.602 25.1699 129.638 25.542 128.337 25.542H124.276V31H122.527V18.0889ZM130.402 21.7979C130.402 20.8486 130.051 20.2041 129.348 19.8643C128.961 19.6826 128.431 19.5918 127.757 19.5918H124.276V24.0654H127.757C128.542 24.0654 129.178 23.8984 129.664 23.5645C130.156 23.2305 130.402 22.6416 130.402 21.7979ZM140.369 24.0039C141.189 24.0039 141.837 23.8398 142.312 23.5117C142.792 23.1836 143.032 22.5918 143.032 21.7363C143.032 20.8164 142.698 20.1895 142.03 19.8555C141.673 19.6797 141.195 19.5918 140.598 19.5918H136.326V24.0039H140.369ZM134.577 18.0889H140.554C141.538 18.0889 142.35 18.2324 142.988 18.5195C144.201 19.0703 144.808 20.0869 144.808 21.5693C144.808 22.3428 144.646 22.9756 144.324 23.4678C144.008 23.96 143.562 24.3555 142.988 24.6543C143.492 24.8594 143.87 25.1289 144.122 25.4629C144.38 25.7969 144.523 26.3389 144.553 27.0889L144.614 28.8203C144.632 29.3125 144.673 29.6787 144.737 29.9189C144.843 30.3291 145.03 30.5928 145.3 30.71V31H143.155C143.097 30.8887 143.05 30.7451 143.015 30.5693C142.979 30.3936 142.95 30.0537 142.927 29.5498L142.821 27.3965C142.78 26.5527 142.467 25.9873 141.881 25.7002C141.547 25.542 141.022 25.4629 140.308 25.4629H136.326V31H134.577V18.0889ZM152.946 17.7373C155.226 17.7373 156.913 18.4697 158.009 19.9346C158.864 21.0771 159.292 22.5391 159.292 24.3203C159.292 26.248 158.803 27.8506 157.824 29.1279C156.676 30.6279 155.038 31.3779 152.911 31.3779C150.925 31.3779 149.363 30.7217 148.227 29.4092C147.213 28.1436 146.706 26.5439 146.706 24.6104C146.706 22.8643 147.14 21.3701 148.007 20.1279C149.12 18.5342 150.767 17.7373 152.946 17.7373ZM153.122 29.8135C154.663 29.8135 155.776 29.2627 156.462 28.1611C157.153 27.0537 157.499 25.7822 157.499 24.3467C157.499 22.8291 157.101 21.6074 156.304 20.6816C155.513 19.7559 154.429 19.293 153.052 19.293C151.716 19.293 150.626 19.7529 149.782 20.6729C148.938 21.5869 148.517 22.9375 148.517 24.7246C148.517 26.1543 148.877 27.3613 149.598 28.3457C150.324 29.3242 151.499 29.8135 153.122 29.8135ZM161.551 18.0889H167.36C168.509 18.0889 169.435 18.4141 170.138 19.0645C170.841 19.709 171.192 20.6172 171.192 21.7891C171.192 22.7969 170.879 23.6758 170.252 24.4258C169.625 25.1699 168.661 25.542 167.36 25.542H163.3V31H161.551V18.0889ZM169.426 21.7979C169.426 20.8486 169.074 20.2041 168.371 19.8643C167.984 19.6826 167.454 19.5918 166.78 19.5918H163.3V24.0654H166.78C167.565 24.0654 168.201 23.8984 168.688 23.5645C169.18 23.2305 169.426 22.6416 169.426 21.7979ZM173.785 18.0889H175.552V31H173.785V18.0889ZM178.566 18.0889H187.979V19.6709H180.271V23.5908H187.399V25.085H180.271V29.4619H188.111V31H178.566V18.0889ZM195.362 29.5059C195.954 29.5059 196.44 29.4443 196.821 29.3213C197.501 29.0928 198.058 28.6533 198.491 28.0029C198.837 27.4814 199.086 26.8135 199.238 25.999C199.326 25.5127 199.37 25.0615 199.37 24.6455C199.37 23.0459 199.051 21.8037 198.412 20.9189C197.779 20.0342 196.757 19.5918 195.345 19.5918H192.242V29.5059H195.362ZM190.484 18.0889H195.714C197.489 18.0889 198.866 18.7188 199.845 19.9785C200.718 21.1152 201.154 22.5713 201.154 24.3467C201.154 25.7178 200.896 26.957 200.381 28.0645C199.473 30.0215 197.911 31 195.696 31H190.484V18.0889ZM210.04 25.709L208.08 20.0049L205.997 25.709H210.04ZM207.166 18.0889H209.144L213.828 31H211.912L210.603 27.1328H205.496L204.099 31H202.306L207.166 18.0889ZM220.376 29.5059C220.968 29.5059 221.454 29.4443 221.835 29.3213C222.515 29.0928 223.071 28.6533 223.505 28.0029C223.851 27.4814 224.1 26.8135 224.252 25.999C224.34 25.5127 224.384 25.0615 224.384 24.6455C224.384 23.0459 224.064 21.8037 223.426 20.9189C222.793 20.0342 221.771 19.5918 220.358 19.5918H217.256V29.5059H220.376ZM215.498 18.0889H220.728C222.503 18.0889 223.88 18.7188 224.858 19.9785C225.731 21.1152 226.168 22.5713 226.168 24.3467C226.168 25.7178 225.91 26.957 225.395 28.0645C224.486 30.0215 222.925 31 220.71 31H215.498V18.0889Z" fill="#FEFEFE"/>
<path d="M26.9602 24.9691C26.9756 19.9575 31.05 15.9007 36.0506 15.9161C41.0292 15.9315 45.1103 20.0279 45.0861 24.9889C45.0619 30.0423 40.983 34.0683 35.9164 34.0397C30.9928 34.0111 26.9448 29.9147 26.9602 24.9713V24.9691ZM36.8426 24.1573C36.8426 24.0473 36.8426 23.9725 36.8426 23.8955C36.8426 22.8989 36.8426 21.9023 36.8426 20.9057C36.8426 20.5031 36.6358 20.1995 36.2948 20.0829C35.7536 19.8959 35.208 20.2831 35.2036 20.8727C35.197 21.8891 35.2014 22.9055 35.2014 23.9219C35.2014 23.9967 35.2014 24.0693 35.2014 24.1595C35.0936 24.1595 35.0166 24.1595 34.9396 24.1595C33.943 24.1595 32.9464 24.1595 31.9476 24.1595C31.5362 24.1595 31.2326 24.3729 31.1182 24.7249C30.9466 25.2639 31.3294 25.7919 31.9124 25.7963C32.9288 25.8029 33.9452 25.7985 34.9616 25.7985C35.0364 25.7985 35.109 25.7985 35.1992 25.7985C35.1992 25.9063 35.1992 25.9833 35.1992 26.0581C35.1992 27.0547 35.1992 28.0513 35.1992 29.0479C35.1992 29.4571 35.4126 29.7629 35.7646 29.8773C36.3036 30.0511 36.8316 29.6661 36.836 29.0831C36.8448 28.0667 36.8382 27.0503 36.8382 26.0339C36.8382 25.9591 36.8382 25.8865 36.8382 25.7963C36.946 25.7963 37.023 25.7963 37.1 25.7963C38.0966 25.7963 39.0932 25.7963 40.092 25.7963C40.4946 25.7963 40.796 25.5895 40.9148 25.2485C41.1018 24.7073 40.7146 24.1639 40.125 24.1595C39.1152 24.1529 38.1054 24.1573 37.0956 24.1573C37.0208 24.1573 36.9438 24.1573 36.8404 24.1573H36.8426Z" fill="white"/>
<defs>
<filter id="filter0_d_23_933" x="0" y="0" width="258" height="58" filterUnits="userSpaceOnUse" color-interpolation-filters="sRGB">
<feFlood flood-opacity="0" result="BackgroundImageFix"/>
<feColorMatrix in="SourceAlpha" type="matrix" values="0 0 0 0 0 0 0 0 0 0 0 0 0 0 0 0 0 0 127 0" result="hardAlpha"/>
<feOffset dy="4"/>
<feGaussianBlur stdDeviation="2"/>
<feComposite in2="hardAlpha" operator="out"/>
<feColorMatrix type="matrix" values="0 0 0 0 0 0 0 0 0 0 0 0 0 0 0 0 0 0 0.25 0"/>
<feBlend mode="normal" in2="BackgroundImageFix" result="effect1_dropShadow_23_933"/>
<feBlend mode="normal" in="SourceGraphic" in2="effect1_dropShadow_23_933" result="shape"/>
</filter>
</defs>
</svg>
