<svg width="61" height="61" viewBox="0 0 61 61" fill="none" xmlns="http://www.w3.org/2000/svg">
<circle cx="30.3544" cy="30.3544" r="30.3544" fill="#BE2121"/>
<path d="M22.3694 47.4888C22.0755 47.3908 21.763 47.3209 21.4878 47.1856C20.3263 46.6118 19.8411 45.6229 19.7432 44.3635C19.412 40.1606 19.0622 35.9578 18.7123 31.7549C18.5444 29.7304 18.3718 27.7106 18.2039 25.6862C18.1945 25.5649 18.2039 25.4389 18.2039 25.2897H43.9388C43.8781 26.0407 43.8222 26.7824 43.7615 27.5287C43.5936 29.5625 43.421 31.5963 43.2531 33.6301C43.0572 35.9764 42.8613 38.3227 42.67 40.6737C42.558 42.0358 42.4694 43.4026 42.3202 44.7646C42.1662 46.1827 41.2706 47.1296 39.8665 47.4375C39.8246 47.4468 39.7872 47.4748 39.7453 47.4935H22.3694V47.4888ZM26.0078 35.3793C26.0078 33.047 26.0078 30.7147 26.0078 28.3823C26.0078 27.8412 25.7886 27.5054 25.3594 27.3561C24.6271 27.1089 23.9927 27.5847 23.9927 28.387C23.9927 32.6832 23.9927 36.9793 23.9927 41.2708C23.9927 41.6766 23.9834 42.0778 23.9927 42.4836C24.0067 42.9361 24.2586 43.2533 24.6737 43.3839C25.3921 43.6031 26.0078 43.146 26.0078 42.3763C26.0078 40.044 26.0078 37.7117 26.0078 35.3793ZM32.0672 35.3747C32.0672 33.0423 32.0672 30.71 32.0672 28.3777C32.0672 27.8366 31.848 27.5007 31.4142 27.3561C30.6818 27.1089 30.0521 27.5847 30.0521 28.3963C30.0521 32.9164 30.0521 37.4364 30.0521 41.9565C30.0521 42.1478 30.0428 42.339 30.0521 42.5303C30.0801 42.9594 30.3273 43.2673 30.7378 43.3932C31.4562 43.6125 32.0672 43.1507 32.0672 42.381C32.0672 40.0487 32.0672 37.7163 32.0672 35.384V35.3747ZM36.1068 35.3653C36.1068 35.7152 36.1068 36.0604 36.1068 36.4102C36.1068 38.3974 36.1068 40.3799 36.1068 42.367C36.1068 42.9034 36.3307 43.2393 36.7739 43.3792C37.4969 43.6125 38.1266 43.146 38.1266 42.3577C38.1266 39.2183 38.1266 36.0744 38.1266 32.9351C38.1266 31.419 38.1266 29.9077 38.1266 28.3917C38.1266 27.9485 37.9634 27.6033 37.5622 27.3981C36.8672 27.0436 36.1068 27.5474 36.1068 28.3637C36.1022 30.696 36.1068 33.033 36.1068 35.3653Z" fill="white"/>
<path d="M31.1249 23.1115C26.5582 23.1115 21.9915 23.1115 17.4248 23.1115C17.1449 23.1115 16.865 23.0882 16.5898 23.0369C16.1886 22.9576 15.9274 22.6964 15.9227 22.2952C15.9087 21.3903 15.8574 20.4713 15.974 19.5757C16.1653 18.1017 17.4341 17.0661 18.9314 17.0568C20.816 17.0428 22.7005 17.0475 24.585 17.0568C24.8556 17.0568 24.9815 16.9915 25.0608 16.7256C25.2194 16.1752 25.4107 15.6387 25.5972 15.0976C26.0497 13.8055 27.1459 13.0172 28.508 13.0125C30.2153 13.0079 31.9179 13.0079 33.6251 13.0125C34.9546 13.0172 36.0554 13.7962 36.5032 15.051C36.7085 15.6201 36.8997 16.1938 37.0723 16.7722C37.1376 16.9962 37.2449 17.0615 37.4735 17.0568C39.3113 17.0475 41.1539 17.0521 42.9964 17.0521C44.9229 17.0521 46.2057 18.3349 46.2104 20.2568C46.2104 20.8305 46.2104 21.3996 46.2104 21.9733C46.2104 22.715 45.8046 23.1115 45.0629 23.1115C40.4169 23.1115 35.7709 23.1115 31.1249 23.1115ZM27.0759 17.0288H35.0385C34.8753 16.5577 34.74 16.1099 34.5721 15.6714C34.4135 15.2516 34.0776 15.037 33.6345 15.0323C31.9179 15.0277 30.2013 15.0277 28.4847 15.0323C28.0369 15.0323 27.7057 15.2469 27.5471 15.6714C27.3791 16.1099 27.2439 16.5577 27.0806 17.0288H27.0759Z" fill="white"/>
</svg>
