<svg width="43" height="43" viewBox="0 0 43 43" fill="none" xmlns="http://www.w3.org/2000/svg">
<g filter="url(#filter0_d_23_818)">
<circle cx="21.5" cy="17.5" r="17.5" fill="#BE2121"/>
<path d="M16.8966 27.3786C16.7272 27.3222 16.547 27.2818 16.3883 27.2038C15.7187 26.873 15.439 26.3029 15.3825 25.5768C15.1916 23.1538 14.9899 20.7307 14.7882 18.3077C14.6914 17.1405 14.5919 15.9761 14.4951 14.8089C14.4897 14.739 14.4951 14.6664 14.4951 14.5803H29.3319C29.2969 15.0133 29.2646 15.4409 29.2297 15.8712C29.1328 17.0437 29.0333 18.2162 28.9365 19.3888C28.8236 20.7415 28.7106 22.0942 28.6004 23.4496C28.5358 24.2349 28.4847 25.0228 28.3987 25.8081C28.3099 26.6256 27.7936 27.1716 26.9841 27.349C26.9599 27.3544 26.9384 27.3706 26.9142 27.3813H16.8966V27.3786ZM18.9942 20.3972C18.9942 19.0526 18.9942 17.708 18.9942 16.3633C18.9942 16.0514 18.8678 15.8577 18.6204 15.7717C18.1982 15.6291 17.8325 15.9035 17.8325 16.366C17.8325 18.8428 17.8325 21.3197 17.8325 23.7938C17.8325 24.0278 17.8271 24.2591 17.8325 24.493C17.8405 24.7539 17.9858 24.9368 18.2251 25.0121C18.6393 25.1385 18.9942 24.8749 18.9942 24.4312C18.9942 23.0865 18.9942 21.7419 18.9942 20.3972ZM22.4876 20.3946C22.4876 19.0499 22.4876 17.7053 22.4876 16.3606C22.4876 16.0487 22.3612 15.855 22.1111 15.7717C21.6889 15.6291 21.3259 15.9035 21.3259 16.3714C21.3259 18.9773 21.3259 21.5832 21.3259 24.1891C21.3259 24.2994 21.3205 24.4097 21.3259 24.5199C21.342 24.7673 21.4845 24.9448 21.7212 25.0174C22.1353 25.1438 22.4876 24.8776 22.4876 24.4339C22.4876 23.0892 22.4876 21.7446 22.4876 20.3999V20.3946ZM24.8165 20.3892C24.8165 20.5909 24.8165 20.7899 24.8165 20.9916C24.8165 22.1372 24.8165 23.2802 24.8165 24.4258C24.8165 24.7351 24.9456 24.9287 25.2011 25.0094C25.618 25.1438 25.981 24.8749 25.981 24.4204C25.981 22.6105 25.981 20.7979 25.981 18.9881C25.981 18.114 25.981 17.2427 25.981 16.3687C25.981 16.1132 25.8869 15.9142 25.6556 15.7959C25.2549 15.5915 24.8165 15.8819 24.8165 16.3526C24.8139 17.6972 24.8165 19.0445 24.8165 20.3892Z" fill="white"/>
<path d="M21.9443 13.3243C19.3115 13.3243 16.6787 13.3243 14.0459 13.3243C13.8845 13.3243 13.7232 13.3109 13.5645 13.2813C13.3332 13.2356 13.1826 13.085 13.18 12.8537C13.1719 12.332 13.1423 11.8022 13.2095 11.2858C13.3198 10.436 14.0513 9.83901 14.9145 9.83363C16.001 9.82556 17.0875 9.82825 18.174 9.83363C18.3299 9.83363 18.4025 9.79598 18.4483 9.64269C18.5397 9.32535 18.65 9.01608 18.7575 8.70413C19.0184 7.9592 19.6504 7.50471 20.4356 7.50202C21.4199 7.49933 22.4015 7.49933 23.3858 7.50202C24.1522 7.50471 24.7869 7.95382 25.0451 8.67723C25.1634 9.00533 25.2737 9.33611 25.3732 9.66958C25.4108 9.79867 25.4727 9.83632 25.6044 9.83363C26.664 9.82825 27.7263 9.83094 28.7886 9.83094C29.8992 9.83094 30.6388 10.5705 30.6415 11.6785C30.6415 12.0093 30.6415 12.3374 30.6415 12.6681C30.6415 13.0957 30.4075 13.3243 29.9799 13.3243C27.3014 13.3243 24.6229 13.3243 21.9443 13.3243ZM19.61 9.81749H24.2006C24.1065 9.54587 24.0285 9.2877 23.9317 9.03491C23.8403 8.79287 23.6467 8.66917 23.3912 8.66648C22.4015 8.66379 21.4119 8.66379 20.4222 8.66648C20.164 8.66648 19.9731 8.79018 19.8816 9.03491C19.7848 9.2877 19.7068 9.54587 19.6127 9.81749H19.61Z" fill="white"/>
</g>
<defs>
<filter id="filter0_d_23_818" x="0" y="0" width="43" height="43" filterUnits="userSpaceOnUse" color-interpolation-filters="sRGB">
<feFlood flood-opacity="0" result="BackgroundImageFix"/>
<feColorMatrix in="SourceAlpha" type="matrix" values="0 0 0 0 0 0 0 0 0 0 0 0 0 0 0 0 0 0 127 0" result="hardAlpha"/>
<feOffset dy="4"/>
<feGaussianBlur stdDeviation="2"/>
<feComposite in2="hardAlpha" operator="out"/>
<feColorMatrix type="matrix" values="0 0 0 0 0 0 0 0 0 0 0 0 0 0 0 0 0 0 0.25 0"/>
<feBlend mode="normal" in2="BackgroundImageFix" result="effect1_dropShadow_23_818"/>
<feBlend mode="normal" in="SourceGraphic" in2="effect1_dropShadow_23_818" result="shape"/>
</filter>
</defs>
</svg>
