<svg width="35" height="35" viewBox="0 0 35 35" fill="none" xmlns="http://www.w3.org/2000/svg">
<circle cx="17.5" cy="17.5" r="17.5" fill="#1FB456"/>
<mask id="mask0_266_488" style="mask-type:luminance" maskUnits="userSpaceOnUse" x="7" y="7" width="21" height="21">
<path d="M28 7H7V28H28V7Z" fill="white"/>
</mask>
<g mask="url(#mask0_266_488)">
<path d="M19.8157 7C20.0141 7.09333 20.1424 7.23333 20.1424 7.4725C20.1424 8.70917 20.5507 9.8175 21.2216 10.8267C21.8691 11.795 22.5749 12.7283 23.2399 13.685C24.1908 15.05 24.9083 16.5258 25.1999 18.1825C25.4449 19.5883 25.4741 20.9883 25.0482 22.3708C24.6574 23.6425 23.9866 24.7567 23.0358 25.6958C22.1958 26.5183 21.2216 27.1308 20.1074 27.5158C18.8882 27.9358 17.6399 28.0642 16.3624 27.8658C14.6766 27.6033 13.2241 26.88 12.0166 25.69C10.9374 24.6283 10.2199 23.3508 9.87576 21.875C9.70659 21.1517 9.64242 20.4225 9.67159 19.6817C9.71242 18.7658 9.80575 17.8617 10.0741 16.9808C10.3716 16.0008 10.8091 15.1025 11.5908 14.4083C11.7133 14.2975 11.8416 14.1983 11.9758 14.105C12.3199 13.8775 12.6291 14.0117 12.7341 14.4142C12.8449 14.84 12.9616 15.2717 13.1191 15.68C13.3466 16.275 13.6966 16.8 14.2449 17.15C14.4374 17.2725 14.6649 17.3542 14.8924 17.4592C14.9274 16.765 14.9566 16.1175 14.9916 15.47C15.1141 12.915 15.9949 10.6633 17.6866 8.7325C18.2524 8.085 18.8766 7.49583 19.5824 7H19.8274H19.8157ZM18.1183 19.6875C17.6458 20.2533 17.3074 20.8425 17.2024 21.5367C17.1208 22.1025 17.0974 22.6742 17.0682 23.2458C17.0449 23.6483 16.8466 23.8233 16.4441 23.7708C15.9716 23.7067 15.6274 23.4558 15.3649 23.065C15.3008 22.9717 15.2424 22.8725 15.1783 22.7675C14.8283 23.5783 14.7582 24.92 15.3357 25.8417C16.2516 27.2883 18.1824 27.5158 19.3549 26.2792C20.0608 25.5325 20.2474 24.6342 20.0783 23.6425C19.9616 22.9658 19.6933 22.3533 19.3141 21.7875C18.8708 21.1283 18.3574 20.5042 18.1124 19.6933L18.1183 19.6875Z" fill="white"/>
</g>
</svg>
