<svg width="21" height="21" viewBox="0 0 21 21" fill="none" xmlns="http://www.w3.org/2000/svg">
<mask id="mask0_266_218" style="mask-type:luminance" maskUnits="userSpaceOnUse" x="0" y="0" width="21" height="21">
<path d="M21 0H0V21H21V0Z" fill="white"/>
</mask>
<g mask="url(#mask0_266_218)">
<path d="M12.8157 0C13.0141 0.0933333 13.1424 0.233333 13.1424 0.4725C13.1424 1.70917 13.5507 2.8175 14.2216 3.82667C14.8691 4.795 15.5749 5.72833 16.2399 6.685C17.1908 8.05 17.9083 9.52583 18.1999 11.1825C18.4449 12.5883 18.4741 13.9883 18.0482 15.3708C17.6574 16.6425 16.9866 17.7567 16.0358 18.6958C15.1958 19.5183 14.2216 20.1308 13.1074 20.5158C11.8882 20.9358 10.6399 21.0642 9.36242 20.8658C7.67659 20.6033 6.22408 19.88 5.01658 18.69C3.93741 17.6283 3.21992 16.3508 2.87576 14.875C2.70659 14.1517 2.64242 13.4225 2.67159 12.6817C2.71242 11.7658 2.80575 10.8617 3.07409 9.98083C3.37159 9.00083 3.80909 8.1025 4.59076 7.40833C4.71326 7.2975 4.84159 7.19833 4.97576 7.105C5.31993 6.8775 5.62909 7.01167 5.73409 7.41417C5.84492 7.84 5.96159 8.27167 6.11909 8.68C6.34659 9.275 6.69658 9.8 7.24492 10.15C7.43742 10.2725 7.66493 10.3542 7.89243 10.4592C7.92743 9.765 7.95658 9.1175 7.99158 8.47C8.11408 5.915 8.99492 3.66333 10.6866 1.7325C11.2524 1.085 11.8766 0.495833 12.5824 0H12.8274H12.8157ZM11.1183 12.6875C10.6458 13.2533 10.3074 13.8425 10.2024 14.5367C10.1208 15.1025 10.0974 15.6742 10.0682 16.2458C10.0449 16.6483 9.84658 16.8233 9.44408 16.7708C8.97158 16.7067 8.62743 16.4558 8.36493 16.065C8.30076 15.9717 8.24242 15.8725 8.17826 15.7675C7.82826 16.5783 7.75825 17.92 8.33575 18.8417C9.25158 20.2883 11.1824 20.5158 12.3549 19.2792C13.0608 18.5325 13.2474 17.6342 13.0783 16.6425C12.9616 15.9658 12.6933 15.3533 12.3141 14.7875C11.8708 14.1283 11.3574 13.5042 11.1124 12.6933L11.1183 12.6875Z" fill="white"/>
</g>
</svg>
