<svg width="21" height="21" viewBox="0 0 21 21" fill="none" xmlns="http://www.w3.org/2000/svg">
<circle cx="10.1591" cy="10.1591" r="10.1591" fill="#102E6E"/>
<mask id="mask0_103_3584" style="mask-type:luminance" maskUnits="userSpaceOnUse" x="4" y="4" width="13" height="13">
<path d="M16.2545 4.06363H4.06363V16.2545H16.2545V4.06363Z" fill="white"/>
</mask>
<g mask="url(#mask0_103_3584)">
<path d="M11.5034 4.06366C11.6186 4.11784 11.6931 4.19911 11.6931 4.33796C11.6931 5.05586 11.9301 5.69927 12.3195 6.28511C12.6954 6.84725 13.1052 7.38907 13.4912 7.94443C14.0432 8.73684 14.4597 9.59359 14.629 10.5553C14.7713 11.3714 14.7882 12.1842 14.541 12.9867C14.3141 13.725 13.9247 14.3718 13.3727 14.917C12.8851 15.3944 12.3195 15.75 11.6727 15.9735C10.965 16.2173 10.2403 16.2918 9.4987 16.1767C8.52004 16.0243 7.67683 15.6044 6.97585 14.9136C6.34938 14.2973 5.93286 13.5556 5.73306 12.6989C5.63486 12.279 5.59761 11.8557 5.61454 11.4256C5.63824 10.894 5.69243 10.3691 5.8482 9.85773C6.0209 9.28882 6.27488 8.76732 6.72866 8.36434C6.79977 8.3 6.87427 8.24243 6.95216 8.18825C7.15195 8.05618 7.33142 8.13407 7.39238 8.36773C7.45672 8.61493 7.52445 8.86552 7.61588 9.10257C7.74795 9.44798 7.95113 9.75275 8.26945 9.95593C8.3812 10.027 8.51327 10.0745 8.64534 10.1354C8.66566 9.73243 8.68258 9.35655 8.7029 8.98066C8.77401 7.49743 9.28535 6.1903 10.2674 5.06941C10.5959 4.69352 10.9582 4.3515 11.368 4.06366H11.5102H11.5034ZM10.518 11.429C10.2437 11.7575 10.0473 12.0995 9.98634 12.5025C9.93893 12.831 9.92538 13.1628 9.90845 13.4947C9.8949 13.7283 9.77976 13.8299 9.5461 13.7995C9.27181 13.7622 9.07202 13.6166 8.91963 13.3897C8.88238 13.3355 8.84852 13.278 8.81127 13.217C8.60809 13.6877 8.56745 14.4666 8.9027 15.0016C9.43435 15.8414 10.5552 15.9735 11.2359 15.2556C11.6457 14.8221 11.754 14.3006 11.6558 13.725C11.5881 13.3321 11.4323 12.9766 11.2122 12.6481C10.9548 12.2654 10.6568 11.9031 10.5146 11.4324L10.518 11.429Z" fill="white"/>
</g>
</svg>
