<svg width="21" height="21" viewBox="0 0 21 21" fill="none" xmlns="http://www.w3.org/2000/svg">
<circle cx="10.1591" cy="10.1591" r="10.1591" fill="#102E6E"/>
<g clip-path="url(#clip0_103_3600)">
<path d="M13.5344 15.6671H10.567C10.567 15.6155 10.567 15.5686 10.567 15.5193C10.567 15.0033 10.567 14.4873 10.567 13.9713C10.567 13.5796 10.3221 13.338 9.92742 13.338C9.56125 13.338 9.19508 13.338 8.82891 13.338C8.43897 13.338 8.19882 13.5749 8.19644 13.9642C8.19644 14.4803 8.19644 14.9963 8.19644 15.5123C8.19644 15.5616 8.19644 15.6108 8.19644 15.6624C8.14889 15.6671 8.11797 15.6741 8.08706 15.6741C7.05038 15.6741 6.01132 15.6741 4.97463 15.6741C4.78442 15.6741 4.66553 15.5827 4.64413 15.4302C4.62035 15.2519 4.73924 15.1065 4.9247 15.0948C5.01981 15.0901 5.1173 15.0948 5.22905 15.0948V14.9236C5.22905 12.0691 5.22905 9.21454 5.22905 6.36002C5.22905 5.95659 5.3836 5.76191 5.7783 5.67278C8.10133 5.14269 10.422 4.61495 12.7426 4.0872C13.2015 3.984 13.5344 4.23966 13.5344 4.70642C13.5344 8.31854 13.5344 11.9307 13.5344 15.5451C13.5344 15.5803 13.5344 15.6178 13.5344 15.6694V15.6671ZM7.59963 7.49292C7.5069 7.49292 7.41417 7.49057 7.32144 7.49292C7.13122 7.49995 7.01709 7.60785 7.01234 7.7908C7.00758 7.97844 7.00758 8.16609 7.01234 8.35138C7.01709 8.53668 7.12884 8.64927 7.31668 8.65161C7.5069 8.6563 7.69712 8.6563 7.88734 8.65161C8.07042 8.64692 8.18693 8.54372 8.19644 8.36546C8.20595 8.16843 8.20595 7.97141 8.19644 7.77673C8.18931 7.59612 8.0728 7.49526 7.88971 7.48823C7.79223 7.48588 7.69474 7.48823 7.59725 7.48823L7.59963 7.49292ZM9.3853 8.6563C9.47803 8.6563 9.57076 8.65865 9.66349 8.6563C9.85371 8.64927 9.96784 8.54606 9.97497 8.36076C9.9821 8.16843 9.9821 7.9761 9.97497 7.78611C9.96784 7.6055 9.85371 7.49995 9.673 7.49526C9.47803 7.49057 9.28306 7.49057 9.09046 7.49526C8.91689 7.49995 8.80038 7.61019 8.79325 7.77673C8.78611 7.97844 8.78611 8.17781 8.79325 8.37953C8.798 8.54137 8.91451 8.64692 9.08095 8.6563C9.18319 8.66099 9.28543 8.6563 9.38768 8.6563H9.3853ZM11.1662 8.6563C11.2589 8.6563 11.3517 8.65865 11.4444 8.6563C11.6275 8.64927 11.744 8.55075 11.7535 8.37249C11.763 8.17312 11.763 7.97141 11.7535 7.76969C11.744 7.60316 11.6322 7.49995 11.4634 7.49526C11.2589 7.49057 11.0568 7.49057 10.8523 7.49526C10.6954 7.49995 10.5789 7.61019 10.5742 7.76265C10.567 7.96672 10.567 8.17312 10.5742 8.37953C10.5789 8.53903 10.6978 8.64692 10.8619 8.65396C10.9641 8.65865 11.0663 8.65396 11.1686 8.65396L11.1662 8.6563ZM7.60677 10.4108C7.6995 10.4108 7.79223 10.4131 7.88496 10.4108C8.07042 10.4037 8.18693 10.3052 8.19644 10.127C8.20595 9.92758 8.20595 9.72587 8.19644 9.52415C8.18693 9.35762 8.07518 9.25441 7.90874 9.24972C7.70425 9.24503 7.50215 9.24269 7.29766 9.24972C7.1336 9.25441 7.01947 9.367 7.01471 9.53119C7.00758 9.72821 7.00996 9.92289 7.01471 10.1199C7.01947 10.2911 7.13122 10.4014 7.30242 10.4084C7.40466 10.4131 7.5069 10.4084 7.60914 10.4084L7.60677 10.4108ZM9.37579 10.4108C9.47327 10.4108 9.57076 10.4131 9.66825 10.4108C9.85133 10.4037 9.96784 10.3029 9.97497 10.1246C9.98448 9.92758 9.98448 9.73056 9.97497 9.53588C9.96784 9.35762 9.85133 9.25207 9.66825 9.24972C9.47327 9.24503 9.2783 9.24503 9.08571 9.24972C8.91213 9.25441 8.798 9.36465 8.79325 9.53353C8.78849 9.73056 8.78849 9.92524 8.79325 10.1223C8.798 10.2911 8.91213 10.4014 9.08333 10.4084C9.18081 10.4131 9.2783 10.4084 9.37579 10.4084V10.4108ZM11.1567 10.4108C11.2542 10.4108 11.3517 10.4131 11.4492 10.4108C11.6251 10.4037 11.7416 10.3052 11.7511 10.134C11.7606 9.92993 11.763 9.72352 11.7511 9.51711C11.7416 9.35058 11.6275 9.25207 11.4563 9.24972C11.2566 9.24503 11.0568 9.24503 10.8595 9.24972C10.6883 9.25441 10.5742 9.36934 10.5718 9.53822C10.567 9.73525 10.567 9.93227 10.5718 10.127C10.5765 10.2888 10.6907 10.399 10.8547 10.4084C10.957 10.4131 11.0592 10.4084 11.1591 10.4084L11.1567 10.4108Z" fill="white"/>
<path d="M13.8958 6.15115C13.941 6.16992 13.979 6.18634 14.0147 6.20276C14.4379 6.40916 14.8564 6.62026 15.282 6.82432C15.5483 6.95333 15.6696 7.15504 15.6672 7.44823C15.6648 9.93684 15.6672 12.4255 15.6672 14.9141V15.0923C15.779 15.0923 15.8788 15.0876 15.9787 15.0923C16.1404 15.1041 16.2545 15.2237 16.2569 15.3785C16.2569 15.5309 16.1547 15.6646 16.0001 15.6646C15.3011 15.6717 14.6044 15.667 13.8982 15.667V6.15115H13.8958Z" fill="white"/>
<path d="M8.798 13.9266H9.96546V15.6646H8.798V13.9266Z" fill="white"/>
</g>
<defs>
<clipPath id="clip0_103_3600">
<rect width="11.6104" height="11.6104" fill="white" transform="translate(4.64413 4.06363)"/>
</clipPath>
</defs>
</svg>
