<svg width="27" height="28" viewBox="0 0 27 28" fill="none" xmlns="http://www.w3.org/2000/svg">
<path d="M0.059082 14.4609C0.059082 14.2241 0.059082 13.9809 0.059082 13.7441C0.212682 12.9761 0.711882 12.4385 1.24308 11.9073C4.50708 8.66249 7.75828 5.40489 11.0031 2.14729C11.5407 1.60969 12.0783 1.09769 12.8591 0.944092H13.5759C14.3567 1.09769 14.8943 1.60969 15.4319 2.14729C18.7727 5.50729 22.1263 8.85449 25.4799 12.2017C25.5887 12.3105 25.6975 12.4193 25.7999 12.5345C27.0031 13.9489 26.2351 16.1377 24.4111 16.4769C24.1359 16.5281 23.8543 16.5281 23.5599 16.5473C23.5599 16.6625 23.5599 16.7649 23.5599 16.8609C23.5599 19.3441 23.5599 21.8273 23.5599 24.3169C23.5599 26.0449 22.3375 27.2609 20.6159 27.2673C19.3039 27.2673 17.9919 27.2673 16.6863 27.2673C16.0399 27.2673 15.7519 26.9793 15.7519 26.3201C15.7519 24.3489 15.7519 22.3777 15.7519 20.4065C15.7519 19.5297 15.2207 18.9985 14.3439 18.9985C13.6143 18.9985 12.8847 19.0177 12.1615 18.9985C11.2719 18.9665 10.6767 19.6065 10.6895 20.4577C10.7215 22.4225 10.7023 24.3809 10.6959 26.3457C10.6959 26.9793 10.4015 27.2673 9.76148 27.2673C8.46868 27.2673 7.17588 27.2673 5.88308 27.2673C4.09108 27.2673 2.88788 26.0641 2.88788 24.2721C2.88788 21.7953 2.88788 19.3185 2.88788 16.8417C2.88788 16.7393 2.88788 16.6433 2.88788 16.5537C2.83668 16.5345 2.82388 16.5281 2.80468 16.5281C2.67668 16.5281 2.54868 16.5281 2.42068 16.5217C1.47988 16.4705 0.775882 16.0289 0.334282 15.2033C0.212682 14.9729 0.155082 14.7105 0.0654819 14.4609H0.059082Z" fill="white"/>
</svg>
