<svg width="26" height="27" viewBox="0 0 26 27" fill="none" xmlns="http://www.w3.org/2000/svg">
<path d="M15.6911 0.00585938C18.6044 0.00585938 21.5117 0.00585938 24.4249 0.00585938C24.863 0.142047 25.3012 0.30784 25.5617 0.710481C25.7453 0.994698 25.8578 1.32628 25.9999 1.63419V13.5713C25.9999 13.5713 25.9762 13.6009 25.9703 13.6127C25.6565 14.7022 25.017 15.1819 23.8801 15.1819C21.3103 15.1819 18.7346 15.1819 16.1648 15.1819C15.9457 15.1819 15.7207 15.17 15.5135 15.1167C14.6253 14.8917 14.0806 14.1516 14.0806 13.1746C14.0806 10.7943 14.0806 8.41987 14.0806 6.03955C14.0806 4.69544 14.0806 3.35133 14.0806 2.0013C14.0806 1.11904 14.5365 0.432185 15.3122 0.136126C15.4365 0.088756 15.5668 0.0532289 15.6971 0.0117806L15.6911 0.00585938Z" fill="white"/>
<path d="M10.3087 0.00592118C10.6285 0.165793 10.9837 0.278296 11.268 0.491459C11.7298 0.84673 11.9193 1.36779 11.9193 1.94215C11.9193 3.54087 11.9311 5.13959 11.9193 6.73831C11.9074 7.85149 11.1022 8.6627 9.98898 8.66862C7.30668 8.68046 4.62439 8.68046 1.94209 8.66862C0.80522 8.66862 0.00585938 7.83373 0.00585938 6.69094C0.00585938 5.13367 0.00585938 3.5764 0.00585938 2.01912C0.00585938 0.988838 0.515081 0.325665 1.52168 0.0414483C1.54537 0.0355271 1.56313 0.0118424 1.5809 0C4.49412 0 7.40142 0 10.3146 0L10.3087 0.00592118Z" fill="white"/>
<path d="M25.9999 24.3834C25.9525 24.5255 25.917 24.6736 25.8578 24.8098C25.538 25.5558 24.9637 25.994 24.1525 25.9999C21.411 26.0177 18.6695 26.0177 15.9279 25.9999C14.9154 25.9999 14.1042 25.1828 14.0865 24.1407C14.0628 22.4887 14.0568 20.8426 14.0865 19.1906C14.1042 18.0951 14.945 17.3372 16.0582 17.3313C17.9708 17.3313 19.8833 17.3313 21.7958 17.3313C22.5123 17.3313 23.2347 17.3313 23.9512 17.3313C25.011 17.3313 25.6861 17.8583 25.9584 18.8767C25.9644 18.9004 25.9821 18.9182 25.994 18.9419V24.3775L25.9999 24.3834Z" fill="white"/>
<path d="M0 18.4148C0 16.5615 0 14.7081 0 12.8548C0 11.641 0.79936 10.8357 2.01912 10.8357C4.64813 10.8357 7.28306 10.8357 9.91207 10.8357C11.1141 10.8357 11.9193 11.6469 11.9193 12.843C11.9193 16.5556 11.9193 20.2741 11.9193 23.9867C11.9193 25.2064 11.1141 26.0058 9.90022 26.0058C7.27122 26.0058 4.63629 26.0058 2.00728 26.0058C0.805282 26.0058 0.00592119 25.2005 0 23.9985C0 22.1392 0 20.2741 0 18.4148Z" fill="white"/>
</svg>
