<svg width="37" height="37" viewBox="0 0 37 37" fill="none" xmlns="http://www.w3.org/2000/svg">
<g clip-path="url(#clip0_1_3018)">
<path d="M4.01084 0.108406C2.52217 0.520321 1.30088 1.74884 0.903418 3.25196C0.744434 3.85899 0.744434 29.9758 0.903418 30.59C1.27197 31.9992 2.37764 33.1772 3.79404 33.6613L4.37217 33.8565L12.3503 33.8781L20.3284 33.8998L20.9644 34.4996C22.294 35.7715 23.9056 36.5881 25.6472 36.8916C26.4421 37.0361 28.0753 37.0289 28.8413 36.8916C30.6769 36.552 32.3245 35.6848 33.6397 34.3623C35.6632 32.3389 36.5954 29.4916 36.169 26.6299C35.6126 22.9154 32.7726 19.902 29.1231 19.1504L28.5089 19.0275L28.4728 11.194C28.4366 3.81563 28.4294 3.33868 28.3065 2.99903C27.7718 1.54649 26.6372 0.484188 25.2208 0.108406C24.6499 -0.0433502 4.56729 -0.0433502 4.01084 0.108406ZM28.6823 21.3545C31.8909 22.0338 34.189 25.04 34.0155 28.3281C33.8276 31.7029 31.1972 34.4563 27.8657 34.7453C24.3825 35.0561 21.2968 32.7436 20.5886 29.3037C19.9743 26.3481 21.5063 23.2623 24.2524 21.9037C25.6616 21.21 27.1431 21.0221 28.6823 21.3545Z" fill="white"/>
<path d="M5.92598 7.16147C5.23946 7.43608 5.00098 8.3394 5.47071 8.88862C5.83926 9.33667 5.73086 9.32221 9.58262 9.32221C13.0586 9.32221 13.102 9.32221 13.3766 9.16323C13.7451 8.95366 13.9836 8.49116 13.9258 8.07924C13.8824 7.75405 13.7234 7.49389 13.4127 7.26987C13.2176 7.12534 13.1236 7.11811 9.66211 7.10366C7.40742 7.09643 6.0416 7.11811 5.92598 7.16147Z" fill="#102E6E"/>
<path d="M16.0068 7.1832C15.6094 7.36387 15.3203 7.79746 15.3203 8.2166C15.3203 8.54902 15.5877 8.99707 15.8912 9.16328C16.1658 9.32227 16.202 9.32227 19.7068 9.32227H23.2479L23.4863 9.15605C23.8838 8.88867 24.0211 8.64297 24.0211 8.20938C24.0211 7.89863 23.985 7.76855 23.8188 7.55176C23.4502 7.0748 23.508 7.08203 19.6779 7.08203C16.9607 7.08926 16.1803 7.11094 16.0068 7.1832Z" fill="#102E6E"/>
<path d="M5.92598 11.4974C5.23946 11.772 5.00098 12.6753 5.47071 13.2246C5.83926 13.6726 5.73086 13.6582 9.58262 13.6582C13.0586 13.6582 13.102 13.6582 13.3766 13.4992C13.7451 13.2896 13.9836 12.8271 13.9258 12.4152C13.8824 12.09 13.7234 11.8298 13.4127 11.6058C13.2176 11.4613 13.1236 11.454 9.66211 11.4396C7.40742 11.4324 6.0416 11.454 5.92598 11.4974Z" fill="#102E6E"/>
<path d="M16.0068 11.5191C15.6094 11.6998 15.3203 12.1334 15.3203 12.5525C15.3203 12.885 15.5877 13.333 15.8912 13.4992C16.1658 13.6582 16.202 13.6582 19.7068 13.6582H23.2479L23.4863 13.492C23.8838 13.2246 24.0211 12.9789 24.0211 12.5453C24.0211 12.2346 23.985 12.1045 23.8188 11.8877C23.4502 11.4107 23.508 11.418 19.6779 11.418C16.9607 11.4252 16.1803 11.4469 16.0068 11.5191Z" fill="#102E6E"/>
<path d="M5.88973 15.8551C5.07312 16.2164 5.00086 17.4016 5.7741 17.8352C6.04871 17.9941 6.09207 17.9941 9.57527 17.9941C13.0585 17.9941 13.1018 17.9941 13.3764 17.8352C13.745 17.6256 13.9835 17.1631 13.9257 16.7512C13.8823 16.426 13.7233 16.1658 13.4126 15.9418C13.2175 15.7973 13.1235 15.79 9.66199 15.7756C6.81473 15.7611 6.06316 15.7756 5.88973 15.8551Z" fill="#102E6E"/>
<path d="M16.0068 15.8551C15.6094 16.0357 15.3203 16.4693 15.3203 16.8885C15.3203 17.2209 15.5877 17.6689 15.8912 17.8352C16.1586 17.9869 16.2525 17.9941 18.0014 17.9941C19.6057 17.9941 19.8658 17.9797 20.0898 17.8641C20.8703 17.4738 20.8703 16.3176 20.0898 15.9129C19.7863 15.7611 19.6996 15.7539 17.9941 15.7539C16.6789 15.7611 16.1658 15.7828 16.0068 15.8551Z" fill="#102E6E"/>
<path d="M5.88973 20.191C5.07312 20.5523 5.00086 21.7375 5.7741 22.1711C6.04871 22.3301 6.09207 22.3301 9.57527 22.3301C13.0585 22.3301 13.1018 22.3301 13.3764 22.1711C13.745 21.9615 13.9835 21.499 13.9257 21.0871C13.8823 20.7619 13.7233 20.5018 13.4126 20.2777C13.2175 20.1332 13.1235 20.126 9.66199 20.1115C6.81473 20.0971 6.06316 20.1115 5.88973 20.191Z" fill="#102E6E"/>
<path d="M5.88973 24.5992C5.07312 24.9605 5.00086 26.1457 5.7741 26.5793C6.04871 26.7383 6.09207 26.7383 9.57527 26.7383C13.0585 26.7383 13.1018 26.7383 13.3764 26.5793C13.745 26.3697 13.9835 25.9072 13.9257 25.4953C13.8823 25.1701 13.7233 24.91 13.4126 24.6859C13.2175 24.5414 13.1235 24.5342 9.66199 24.5197C6.81473 24.5053 6.06316 24.5197 5.88973 24.5992Z" fill="#102E6E"/>
<path d="M29.8097 24.816C29.5278 24.9461 29.4411 25.04 27.9307 26.9189C27.2298 27.7934 26.6083 28.5016 26.5577 28.5016C26.5071 28.4943 26.0735 28.2053 25.5893 27.8584C24.6427 27.1719 24.3464 27.0707 23.8261 27.2441C23.1468 27.4609 22.9083 28.4004 23.378 28.9641C23.5298 29.152 25.8495 30.8863 26.2614 31.1248C26.3481 31.1754 26.6011 31.2115 26.8251 31.2188C27.1647 31.2188 27.2731 31.1898 27.4682 31.0236C27.5983 30.908 28.5089 29.8168 29.4989 28.5811C30.7347 27.0346 31.3056 26.2686 31.3345 26.1096C31.4718 25.3797 30.9081 24.7076 30.171 24.7148C30.0915 24.7221 29.9325 24.7654 29.8097 24.816Z" fill="white"/>
</g>
<defs>
<clipPath id="clip0_1_3018">
<rect width="37" height="37" fill="white"/>
</clipPath>
</defs>
</svg>
