<svg width="28" height="28" viewBox="0 0 28 28" fill="none" xmlns="http://www.w3.org/2000/svg">
<path d="M17.9902 25.7936C17.9908 25.7974 17.9921 25.8011 17.9942 25.8044C17.9963 25.8076 17.9991 25.8104 18.0024 25.8124C18.0056 25.8145 18.0093 25.8159 18.0131 25.8164C18.017 25.8169 18.0209 25.8166 18.0246 25.8155C19.5381 25.3838 20.6882 24.4965 21.475 23.1535C21.4807 23.1439 21.4828 23.1326 21.4809 23.1216C21.4789 23.1106 21.4731 23.1006 21.4644 23.0934C20.7522 22.5153 20.2692 21.7059 20.0831 20.8183C20.0206 20.52 19.9906 20.1293 19.9931 19.6464C19.9994 18.4688 20 17.2814 19.995 16.0843C19.9862 14.2016 21.1608 12.6547 22.9637 12.1334C22.9723 12.1308 22.9799 12.1255 22.9854 12.1184C22.9909 12.1112 22.994 12.1025 22.9944 12.0934C23.0031 11.7467 23.0033 11.3477 22.995 10.8964C22.9013 5.78987 18.7049 1.78525 13.5777 2.01151C10.8176 2.13402 8.28865 3.52723 6.67432 5.778C5.68724 7.15433 5.13642 8.71339 5.02189 10.4552C4.99815 10.8152 4.99378 11.3619 5.00877 12.0953C5.00919 12.114 5.01856 12.1261 5.03688 12.1315C6.83988 12.649 8.01064 14.2035 8.00314 16.083C7.99897 17.1943 8.00043 18.3832 8.00751 19.6495C8.01001 20.1283 7.98107 20.5139 7.92067 20.8064C7.55708 22.5722 6.01335 23.916 4.20911 23.9929C2.22868 24.0773 0.510655 22.7597 0.092705 20.8221C0.0277323 20.5208 -0.00308814 20.1133 0.0002438 19.5995C0.00857364 18.3319 0.0102396 17.1579 0.0052417 16.0774C-0.00350463 14.2016 1.17538 12.6447 2.97337 12.1346C2.99795 12.1276 3.01002 12.1111 3.00961 12.0853C2.99295 11.2923 2.99732 10.7156 3.02273 10.3552C3.20432 7.76166 4.1383 5.52819 5.82468 3.65474C7.66224 1.61378 9.98064 0.417246 12.7799 0.0651412C13.1414 0.0197217 13.5475 -0.00194639 13.9981 0.00013707C16.3821 0.0113878 18.5406 0.713723 20.4735 2.10714C23.2174 4.08539 24.8679 7.26934 24.9873 10.6239C24.9956 10.8585 24.9989 11.3479 24.9973 12.0921C24.9973 12.1134 25.0075 12.1269 25.0279 12.1328C26.5335 12.5578 27.6599 13.7597 27.9292 15.2992C27.9791 15.5838 28.0027 15.9774 27.9998 16.4799C27.9927 17.6704 27.9904 18.8367 27.9929 19.9789C27.996 21.4265 27.2432 22.7184 26.0112 23.4497C25.2149 23.9231 24.3251 24.0893 23.3417 23.9485C23.3353 23.9476 23.3287 23.9486 23.3229 23.9515C23.3171 23.9544 23.3123 23.9591 23.3092 23.9648C22.1172 26.1636 19.9794 27.6375 17.511 27.9425C17.2282 27.9775 16.8126 27.9958 16.2641 27.9975C15.5127 28 14.7684 28.0006 14.0312 27.9994C12.8174 27.9969 11.8746 26.9818 12.0177 25.763C12.1108 24.9673 12.6774 24.3016 13.4359 24.0829C13.6529 24.02 13.9396 23.9906 14.2961 23.9948C14.8896 24.001 15.4835 24.0041 16.0779 24.0041C16.349 24.0035 16.6714 24.0929 16.9125 24.2223C17.5285 24.5523 17.8877 25.0761 17.9902 25.7936Z" fill="white"/>
</svg>
