<svg width="20" height="20" viewBox="0 0 20 20" fill="none" xmlns="http://www.w3.org/2000/svg">
<g clip-path="url(#clip0_266_234)">
<path d="M15.3144 19.9878H10.2028C10.2028 19.8989 10.2028 19.8181 10.2028 19.7333C10.2028 18.8444 10.2028 17.9555 10.2028 17.0666C10.2028 16.3919 9.78094 15.9757 9.10103 15.9757C8.47027 15.9757 7.83951 15.9757 7.20875 15.9757C6.53704 15.9757 6.12336 16.3838 6.11926 17.0545C6.11926 17.9434 6.11926 18.8323 6.11926 19.7212C6.11926 19.806 6.11926 19.8909 6.11926 19.9797C6.03734 19.9878 5.9841 20 5.93085 20C4.14506 20 2.35518 20 0.569393 20C0.241726 20 0.0369339 19.8424 7.13463e-05 19.5798C-0.0408871 19.2727 0.163905 19.0222 0.483381 19.002C0.647214 18.9939 0.815144 19.002 1.00765 19.002V18.707C1.00765 13.7899 1.00765 8.87268 1.00765 3.95551C1.00765 3.26056 1.27388 2.92521 1.95379 2.77167C5.95543 1.85854 9.95297 0.949448 13.9505 0.0403574C14.741 -0.13742 15.3144 0.302984 15.3144 1.10702C15.3144 7.32925 15.3144 13.5515 15.3144 19.7777C15.3144 19.8383 15.3144 19.903 15.3144 19.9919V19.9878ZM5.0912 5.90702C4.93147 5.90702 4.77173 5.90298 4.61199 5.90702C4.28432 5.91914 4.08772 6.105 4.07953 6.42016C4.07134 6.74339 4.07134 7.06662 4.07953 7.38581C4.08772 7.705 4.28023 7.89894 4.6038 7.90298C4.93147 7.91106 5.25913 7.91106 5.5868 7.90298C5.90218 7.8949 6.10288 7.71712 6.11926 7.41005C6.13564 7.07066 6.13564 6.73127 6.11926 6.39591C6.10697 6.0848 5.90628 5.91106 5.5909 5.89894C5.42297 5.8949 5.25504 5.89894 5.08711 5.89894L5.0912 5.90702ZM8.16718 7.91106C8.32692 7.91106 8.48666 7.9151 8.64639 7.91106C8.97406 7.89894 9.17066 7.72117 9.18295 7.40197C9.19524 7.07066 9.19524 6.73935 9.18295 6.41207C9.17066 6.10096 8.97406 5.91914 8.66278 5.91106C8.32692 5.90298 7.99106 5.90298 7.6593 5.91106C7.3603 5.91914 7.1596 6.10904 7.14732 6.39591C7.13503 6.74339 7.13503 7.08682 7.14732 7.4343C7.15551 7.71308 7.3562 7.8949 7.64291 7.91106C7.81903 7.91915 7.99516 7.91106 8.17128 7.91106H8.16718ZM11.235 7.91106C11.3947 7.91106 11.5544 7.9151 11.7142 7.91106C12.0296 7.89894 12.2303 7.72925 12.2466 7.42218C12.263 7.07874 12.263 6.73127 12.2466 6.38379C12.2303 6.09692 12.0378 5.91914 11.7469 5.91106C11.3947 5.90298 11.0466 5.90298 10.6943 5.91106C10.424 5.91914 10.2233 6.10904 10.2151 6.37167C10.2028 6.72319 10.2028 7.07874 10.2151 7.4343C10.2233 7.70904 10.4281 7.8949 10.7107 7.90702C10.8868 7.9151 11.0629 7.90702 11.2391 7.90702L11.235 7.91106ZM5.10349 10.9333C5.26323 10.9333 5.42297 10.9373 5.5827 10.9333C5.90218 10.9212 6.10288 10.7515 6.11926 10.4444C6.13564 10.101 6.13564 9.75349 6.11926 9.40601C6.10288 9.11915 5.91037 8.94137 5.62366 8.93329C5.27142 8.92521 4.92327 8.92117 4.57103 8.93329C4.28842 8.94137 4.09182 9.13531 4.08363 9.41813C4.07134 9.75753 4.07543 10.0929 4.08363 10.4323C4.09182 10.7272 4.28432 10.9171 4.57922 10.9292C4.75534 10.9373 4.93147 10.9292 5.10759 10.9292L5.10349 10.9333ZM8.1508 10.9333C8.31873 10.9333 8.48666 10.9373 8.65459 10.9333C8.96997 10.9212 9.17066 10.7474 9.18295 10.4404C9.19933 10.101 9.19933 9.76157 9.18295 9.42622C9.17066 9.11914 8.96997 8.93733 8.65459 8.93329C8.31873 8.92521 7.98287 8.92521 7.65111 8.93329C7.35211 8.94137 7.15551 9.13127 7.14732 9.42218C7.13913 9.76157 7.13913 10.0969 7.14732 10.4363C7.15551 10.7272 7.35211 10.9171 7.64701 10.9292C7.81494 10.9373 7.98287 10.9292 8.1508 10.9292V10.9333ZM11.2186 10.9333C11.3865 10.9333 11.5544 10.9373 11.7224 10.9333C12.0255 10.9212 12.2262 10.7515 12.2425 10.4565C12.2589 10.105 12.263 9.74945 12.2425 9.39389C12.2262 9.10702 12.0296 8.93733 11.7347 8.93329C11.3906 8.92521 11.0466 8.92521 10.7066 8.93329C10.4117 8.94137 10.2151 9.13935 10.211 9.43026C10.2028 9.76965 10.2028 10.109 10.211 10.4444C10.2192 10.7232 10.4158 10.9131 10.6984 10.9292C10.8745 10.9373 11.0507 10.9292 11.2227 10.9292L11.2186 10.9333Z" fill="white"/>
<path d="M15.937 3.59595C16.0148 3.62827 16.0804 3.65655 16.1418 3.68484C16.8709 4.04039 17.5917 4.40403 18.3249 4.75554C18.7836 4.97777 18.9925 5.32524 18.9884 5.83029C18.9843 10.1172 18.9884 14.404 18.9884 18.6909V18.998C19.1809 18.998 19.3529 18.9899 19.525 18.998C19.8035 19.0182 20.0001 19.2242 20.0042 19.4909C20.0042 19.7535 19.8281 19.9838 19.5618 19.9838C18.3577 19.9959 17.1576 19.9879 15.9411 19.9879V3.59595H15.937Z" fill="white"/>
<path d="M7.15552 16.99H9.16658V19.9839H7.15552V16.99Z" fill="white"/>
</g>
<defs>
<clipPath id="clip0_266_234">
<rect width="20" height="20" fill="white"/>
</clipPath>
</defs>
</svg>
