<svg width="32" height="32" viewBox="0 0 32 32" fill="none" xmlns="http://www.w3.org/2000/svg">
<rect width="32" height="32" fill="#1E1E1E"/>
<g id="Menu 2" clip-path="url(#clip0_0_1)">
<rect width="390" height="844" transform="translate(-43 -329)" fill="#474747" fill-opacity="0.2"/>
<g id="Rectangle 41" filter="url(#filter0_d_0_1)">
<rect x="-48" y="-329" width="349" height="982" fill="#102E6E"/>
</g>
<g id="Group 262">
<g id="Group 106">
<path id="Vector" d="M29.2693 29.5821H19.5452V23.7685C19.6944 23.7461 19.8362 23.7237 19.9855 23.7088C20.3288 23.6715 20.5153 23.5148 20.4705 23.2685C20.4183 22.97 20.2093 22.8954 19.9332 22.9252C18.9332 23.0222 17.9332 23.1193 16.9406 23.2163C16.6346 23.2461 16.3361 23.276 16.0301 23.3058C15.7839 23.3357 15.6421 23.47 15.657 23.7163C15.6719 23.9775 15.8585 24.0894 16.1048 24.082C16.254 24.082 16.4033 24.0521 16.5749 24.0372V29.5896H14.3286C14.3286 29.4701 14.3286 29.3582 14.3286 29.2388C14.3286 20.649 14.3286 12.0593 14.3286 3.47701C14.3286 3.20088 14.4256 3.08148 14.6644 2.98446C16.9406 2.02175 19.2168 1.04412 21.4855 0.0739466C21.6945 -0.0156077 21.8736 -0.0305334 22.0975 0.0664837C24.3885 1.05904 26.6796 2.03668 28.9782 3.00685C29.2096 3.10387 29.2767 3.22327 29.2767 3.46208C29.2767 12.0593 29.2767 20.664 29.2767 29.2612V29.597L29.2693 29.5821ZM20.284 7.76815C20.0004 7.85771 19.7616 7.93234 19.5302 8.01443C18.963 8.20349 18.6795 8.59902 18.6795 9.20102V11.1936C19.0675 11.0891 19.4108 10.9921 19.7541 10.8951C20.1074 10.7956 20.284 10.5568 20.284 10.1787C20.284 9.80551 20.284 9.43983 20.284 9.06669C20.284 8.64877 20.284 8.22339 20.284 7.76069V7.76815ZM18.7018 17.4326V20.3281C19.2392 20.2759 19.7541 20.2237 20.2616 20.1789V17.2012C19.7392 17.2833 19.2317 17.3579 18.7018 17.4326ZM18.6795 15.7683C19.2466 15.6639 19.7541 15.5668 20.2616 15.4698V12.4921C19.7541 12.619 19.269 12.731 18.7914 12.8578C18.7466 12.8727 18.6869 12.9698 18.6869 13.0295C18.6869 13.925 18.6869 14.8131 18.6869 15.7683H18.6795ZM20.2765 3.24566C19.9332 3.39492 19.6496 3.55164 19.3511 3.62627C18.769 3.76806 18.6048 4.10389 18.6571 4.67853C18.7168 5.31287 18.672 5.95468 18.672 6.64126C19.1944 6.44723 19.672 6.27558 20.1422 6.08901C20.2019 6.06662 20.2616 5.96214 20.2616 5.89498C20.269 5.03675 20.2616 4.17852 20.2616 3.25312L20.2765 3.24566ZM17.2242 16.0445V13.231C16.7466 13.3504 16.2988 13.4623 15.851 13.5743V16.3057C16.3212 16.2161 16.7764 16.134 17.2242 16.0445ZM15.851 11.9996C16.2466 11.8877 16.6122 11.7757 16.9779 11.6862C17.1869 11.6414 17.2615 11.5518 17.2541 11.3354C17.2391 10.5817 17.2541 9.8279 17.2541 9.08162C17.2541 8.99953 17.2317 8.91743 17.2167 8.81295C16.7466 8.96967 16.3063 9.11893 15.851 9.27565V12.0071V11.9996ZM15.851 20.6043C16.269 20.567 16.6496 20.5446 17.0302 20.4923C17.1123 20.4849 17.2391 20.3804 17.2391 20.3207C17.2541 19.4475 17.2466 18.5818 17.2466 17.6639C16.754 17.7385 16.2988 17.8132 15.851 17.8803V20.5968V20.6043ZM17.2466 4.5442C16.9929 4.64868 16.8137 4.75316 16.6197 4.79794C15.9555 4.94719 15.7391 5.33526 15.8212 6.00692C15.8884 6.54425 15.8361 7.10396 15.8361 7.69353C16.2839 7.52934 16.6869 7.38755 17.0749 7.23083C17.1496 7.20098 17.2391 7.10396 17.2391 7.02933C17.2541 6.22334 17.2391 5.41735 17.2391 4.5442H17.2466Z" fill="white"/>
<path id="Vector_2" d="M13.5302 29.582H8.07481V25.0072C8.239 24.9848 8.40318 24.9625 8.57482 24.9475C8.84349 24.9177 9.01513 24.7908 8.98528 24.5072C8.95543 24.2386 8.76886 24.1415 8.51512 24.1639C7.50764 24.2609 6.49269 24.358 5.4852 24.455C5.17922 24.4848 4.88071 24.5147 4.57473 24.5445C4.31353 24.5669 4.16427 24.7087 4.18666 24.9699C4.20905 25.2386 4.39562 25.3356 4.6419 25.3207C4.78369 25.3207 4.92549 25.2908 5.08967 25.2684V29.567H2.69409V29.2163C2.69409 23.246 2.69409 17.2757 2.69409 11.3054C2.69409 11.0517 2.75379 10.9248 3.00007 10.8278C5.41804 9.80539 7.82854 8.76805 10.2465 7.74564C10.3808 7.6934 10.5674 7.68594 10.7017 7.74564C11.5824 8.10386 12.448 8.48446 13.3212 8.85014C13.4705 8.91731 13.5675 8.98447 13.5675 9.17851C13.5675 15.9473 13.5675 22.7087 13.56 29.4775C13.56 29.4999 13.56 29.5223 13.5451 29.582H13.5302ZM7.98526 14.5816C7.56734 14.7085 7.1942 14.8204 6.82852 14.9473C6.76881 14.9697 6.68672 15.0667 6.68672 15.1264C6.67926 15.8652 6.68672 16.5966 6.68672 17.3653C7.14942 17.2459 7.56734 17.1414 7.99272 17.0369V14.5816H7.98526ZM7.98526 20.9101V18.4548C7.54495 18.5519 7.11957 18.6414 6.70165 18.7235V21.0892C7.14196 21.0295 7.55988 20.9698 7.98526 20.9101ZM6.69418 13.6189C7.10464 13.4771 7.48525 13.3502 7.85839 13.201C7.91809 13.1786 8.00018 13.0816 8.00018 13.0219C8.00765 12.3129 8.00018 11.5965 8.00018 10.8502C7.53002 11.0517 7.1121 11.2233 6.69418 11.4024V13.6189ZM4.38816 19.2011V21.4176C4.77623 21.3579 5.12698 21.3131 5.49266 21.2534V18.9698C5.11206 19.0444 4.75384 19.119 4.38816 19.1937V19.2011ZM4.35831 17.9324C4.77623 17.828 5.13445 17.7459 5.49266 17.6563V15.3727C5.14937 15.4772 4.82101 15.5742 4.50757 15.6861C4.44786 15.7085 4.36577 15.8055 4.36577 15.8652C4.35831 16.5369 4.36577 17.2085 4.36577 17.9324H4.35831ZM5.50759 11.9025C5.14191 12.0517 4.82101 12.1786 4.50757 12.3278C4.4404 12.3577 4.36577 12.4472 4.36577 12.5144C4.35831 13.1413 4.36577 13.7682 4.36577 14.4547C4.74638 14.3204 5.07474 14.2085 5.39565 14.0816C5.45535 14.0592 5.51505 13.9323 5.51505 13.8577C5.52252 13.2234 5.51505 12.5965 5.51505 11.9099L5.50759 11.9025Z" fill="white"/>
<path id="Vector_3" d="M31.9634 30.4028V31.9999H0V30.4028H31.9634Z" fill="white"/>
</g>
</g>
</g>
<defs>
<filter id="filter0_d_0_1" x="-62" y="-341" width="377" height="1010" filterUnits="userSpaceOnUse" color-interpolation-filters="sRGB">
<feFlood flood-opacity="0" result="BackgroundImageFix"/>
<feColorMatrix in="SourceAlpha" type="matrix" values="0 0 0 0 0 0 0 0 0 0 0 0 0 0 0 0 0 0 127 0" result="hardAlpha"/>
<feMorphology radius="7" operator="dilate" in="SourceAlpha" result="effect1_dropShadow_0_1"/>
<feOffset dy="2"/>
<feGaussianBlur stdDeviation="3.5"/>
<feComposite in2="hardAlpha" operator="out"/>
<feColorMatrix type="matrix" values="0 0 0 0 0 0 0 0 0 0 0 0 0 0 0 0 0 0 0.25 0"/>
<feBlend mode="normal" in2="BackgroundImageFix" result="effect1_dropShadow_0_1"/>
<feBlend mode="normal" in="SourceGraphic" in2="effect1_dropShadow_0_1" result="shape"/>
</filter>
<clipPath id="clip0_0_1">
<rect width="390" height="844" fill="white" transform="translate(-43 -329)"/>
</clipPath>
</defs>
</svg>
