<svg width="16" height="23" viewBox="0 0 16 23" fill="none" xmlns="http://www.w3.org/2000/svg">
<path d="M5.55903 11.575C5.19815 11.575 4.87736 11.575 4.56326 11.575C3.26006 11.575 1.95019 11.575 0.646997 11.575C0.205916 11.575 -0.0614031 11.2877 0.0121103 10.9067C0.0321594 10.8132 0.078946 10.7129 0.13241 10.6327C2.33113 7.19763 4.52985 3.76923 6.72857 0.334152C6.87559 0.106929 7.06271 0 7.33003 0C9.80276 0 12.2688 0 14.7415 0C14.9888 0 15.1893 0.0668303 15.3163 0.287371C15.4499 0.521277 15.3898 0.735134 15.2561 0.948991C13.8727 3.18113 12.4893 5.40658 11.1126 7.63871C11.0592 7.72559 11.0124 7.81247 10.9389 7.92608C11.0458 7.92608 11.126 7.93945 11.2129 7.93945C12.3156 7.93945 13.4183 7.93945 14.521 7.93945C14.795 7.93945 15.0088 8.03301 15.1225 8.30033C15.2294 8.56097 15.1425 8.77483 14.9554 8.95527C14.9554 8.95527 14.942 8.96864 14.9353 8.96864C10.6315 13.2725 6.3209 17.5764 2.01034 21.8803C1.74302 22.1476 1.46901 22.1944 1.21506 22.0206C0.967787 21.8469 0.914322 21.5662 1.06803 21.2253C2.51825 18.111 3.96847 15.0034 5.41869 11.8891C5.45878 11.7956 5.49889 11.7087 5.55903 11.575Z" fill="white"/>
</svg>
