<svg width="24" height="22" viewBox="0 0 24 22" fill="none" xmlns="http://www.w3.org/2000/svg">
<path d="M0 18.0039C0.103244 17.5059 0.376525 17.0929 0.631599 16.6678C1.64582 14.943 2.66005 13.2182 3.67428 11.4874C3.71072 11.4267 3.74716 11.3598 3.78967 11.2748C3.63784 11.1898 3.49816 11.1048 3.35848 11.0258C3.09126 10.8679 2.96371 10.6432 3.00622 10.3335C3.04873 10.0237 3.237 9.83548 3.53459 9.75652C4.39091 9.53182 5.24723 9.31318 6.10356 9.10062C6.48617 9.00345 6.81411 9.23423 6.9295 9.6715C7.1117 10.3821 7.29391 11.0926 7.4761 11.8093C7.50647 11.9429 7.54289 12.0704 7.57326 12.204C7.63399 12.4834 7.54291 12.7142 7.32427 12.8781C7.09349 13.0543 6.83841 13.0664 6.5894 12.9207C6.44365 12.8417 6.30398 12.7567 6.12785 12.6534C5.16222 14.2932 4.19658 15.9269 3.20665 17.6031C3.32811 17.6031 3.40098 17.6031 3.47993 17.6031C5.26545 17.6031 7.0449 17.6031 8.83042 17.6031C9.44988 17.6031 9.98433 18.0343 10.1301 18.6234C10.2819 19.2368 10.0086 19.8684 9.44989 20.1417C9.25555 20.2389 9.0187 20.2996 8.80614 20.2996C6.55298 20.3117 4.29374 20.3117 2.04059 20.2996C1.07495 20.2996 0.285425 19.6498 0.0607171 18.7084C0.0485707 18.6659 0.0303593 18.6295 0.0121397 18.587C0.0121397 18.3926 0.0121397 18.1983 0.0121397 18.0039H0Z" fill="white"/>
<path d="M16.6648 6.87183C16.8227 6.77466 16.9564 6.68963 17.0961 6.61675C17.3511 6.48314 17.6062 6.48314 17.837 6.65319C18.0617 6.81717 18.1589 7.0601 18.092 7.32732C17.8734 8.22008 17.6487 9.11891 17.4058 10.0056C17.3147 10.3396 16.9624 10.5218 16.6163 10.4307C15.7539 10.2121 14.8915 9.9813 14.0291 9.7566C13.7497 9.68372 13.5736 9.5076 13.5371 9.21001C13.4946 8.90028 13.6161 8.66949 13.8833 8.51159C14.0291 8.42657 14.1809 8.33547 14.3449 8.2383C13.4096 6.6289 12.4743 5.03165 11.5208 3.39796C11.4662 3.48906 11.4237 3.55586 11.3812 3.62267C10.6342 4.90411 9.88716 6.19163 9.13408 7.467C8.71503 8.17756 7.87693 8.39013 7.21495 7.965C6.60155 7.56417 6.41936 6.7868 6.80197 6.11875C7.37286 5.12275 7.95589 4.13282 8.53284 3.14288C8.93367 2.45661 9.32843 1.76427 9.72926 1.078C10.5674 -0.355277 12.4561 -0.36135 13.2881 1.07192C14.3631 2.9121 15.432 4.75228 16.5009 6.59246C16.5495 6.67748 16.5981 6.75644 16.6588 6.85968L16.6648 6.87183Z" fill="white"/>
<path d="M14.8915 17.5911H19.8229C19.7744 17.5061 19.7379 17.4332 19.7015 17.3664C18.9241 16.0486 18.1407 14.7367 17.3572 13.4189C17.175 13.1091 17.0961 12.7812 17.1629 12.4289C17.2783 11.8641 17.6973 11.4511 18.2621 11.3479C18.7905 11.2507 19.3432 11.4997 19.6408 11.9917C20.2359 12.9816 20.819 13.9776 21.4081 14.9736C21.8575 15.7267 22.313 16.4798 22.7442 17.2389C23.4244 18.4292 22.8353 19.8747 21.5356 20.2269C21.3291 20.2816 21.1044 20.2998 20.8918 20.2998C18.9788 20.2998 17.0718 20.2998 15.1587 20.2998H14.8915C14.8915 20.5184 14.8915 20.7188 14.8915 20.9193C14.8915 21.2229 14.77 21.4658 14.4907 21.5873C14.1992 21.7209 13.938 21.642 13.7133 21.4173C13.0574 20.7674 12.4015 20.1237 11.7456 19.4678C11.4419 19.1641 11.4419 18.7754 11.7395 18.4657C12.3894 17.7976 13.0453 17.1417 13.6951 16.4737C13.9137 16.249 14.1749 16.1639 14.4725 16.2854C14.77 16.4069 14.8915 16.6498 14.8915 16.9656C14.8915 17.1599 14.8915 17.3543 14.8915 17.5729V17.5911Z" fill="white"/>
</svg>
