<svg width="100" height="100" viewBox="0 0 100 100" fill="none" xmlns="http://www.w3.org/2000/svg">
<g id="password 1">
<path id="Vector" d="M86.6001 60.1302C86.2901 61.5102 85.7801 62.7802 84.7301 63.7702C83.4601 64.9702 81.9301 65.4702 80.2201 65.4702C60.3101 65.4702 40.4001 65.4702 20.5001 65.4702C16.6801 65.4702 14.1401 62.8602 14.1401 59.0402C14.1401 53.2402 14.1401 47.4302 14.1401 41.6302C14.1401 38.5302 15.8301 36.2602 18.7601 35.4702C19.3701 35.3102 20.0201 35.2602 20.6501 35.2602C40.4601 35.2502 60.2801 35.2602 80.0901 35.2402C83.5901 35.2402 86.0901 37.4402 86.5501 40.4702C86.5501 40.5102 86.6001 40.5502 86.6201 40.5902V60.1302H86.6001ZM50.3601 62.4302C60.2901 62.4302 70.2201 62.4302 80.1501 62.4302C82.3101 62.4302 83.5701 61.2702 83.5701 59.1702C83.5901 53.2902 83.5901 47.4202 83.5701 41.5402C83.5701 39.4902 82.3301 38.2902 80.2901 38.2902C60.3301 38.2902 40.3701 38.2902 20.4201 38.2902C18.3801 38.2902 17.1501 39.5002 17.1401 41.5402C17.1201 47.4202 17.1401 53.2902 17.1401 59.1702C17.1401 59.9902 17.3401 60.7602 17.9001 61.3902C18.6301 62.2202 19.5801 62.4302 20.6401 62.4302C30.5501 62.4202 40.4601 62.4302 50.3601 62.4302Z" fill="#102E6E"/>
<path id="Vector_2" d="M30.7501 50.3598C31.3301 50.6998 31.8001 50.9498 32.2501 51.2398C33.1101 51.7798 33.3601 52.6498 32.9001 53.4198C32.4801 54.1298 31.5801 54.3098 30.7201 53.8398C30.2501 53.5898 29.7901 53.3098 29.2801 53.0198C29.2301 53.8098 29.2301 54.5198 29.1301 55.2098C29.0201 55.9098 28.4301 56.3698 27.7401 56.3798C27.0301 56.3998 26.4201 55.9298 26.2801 55.1998C26.2101 54.8798 26.2101 54.5498 26.1901 54.2198C26.1801 53.8498 26.1901 53.4798 26.1901 52.9898C25.6201 53.3098 25.1601 53.5898 24.6901 53.8398C23.8301 54.3098 22.9401 54.1198 22.5101 53.4098C22.0601 52.6398 22.3101 51.7698 23.1701 51.2298C23.6201 50.9398 24.0901 50.6898 24.6601 50.3598C24.1201 50.0398 23.6601 49.7798 23.2101 49.4998C22.3301 48.9598 22.0601 48.1098 22.5001 47.3398C22.9301 46.5898 23.8201 46.3998 24.7301 46.8898C25.1801 47.1298 25.6201 47.3998 26.1401 47.6898C26.1901 46.8998 26.1901 46.1798 26.3001 45.4798C26.4101 44.7998 27.0401 44.3398 27.7201 44.3398C28.4001 44.3398 29.0001 44.7998 29.1401 45.4798C29.2101 45.7998 29.2201 46.1298 29.2301 46.4598C29.2401 46.8398 29.2301 47.2098 29.2301 47.7198C29.7601 47.4198 30.1901 47.1698 30.6401 46.9198C31.5901 46.3998 32.4801 46.5598 32.9301 47.3398C33.3801 48.1298 33.0801 48.9698 32.1501 49.5298C31.7301 49.7798 31.3001 50.0298 30.7501 50.3498V50.3598Z" fill="#102E6E"/>
<path id="Vector_3" d="M71.4901 47.7298C71.4901 47.0698 71.4701 46.5498 71.4901 46.0298C71.5401 44.9898 72.1401 44.3398 73.0101 44.3398C73.8801 44.3398 74.4701 44.9998 74.5201 46.0398C74.5401 46.5598 74.5201 47.0698 74.5201 47.7198C75.0701 47.4098 75.5301 47.1398 75.9901 46.8898C76.9001 46.4098 77.7901 46.5998 78.2101 47.3498C78.6401 48.1198 78.3701 48.9598 77.4901 49.5098C77.0501 49.7798 76.6001 50.0298 76.0701 50.3398C76.7201 50.7498 77.3301 51.0898 77.8701 51.5098C78.4601 51.9598 78.5601 52.7998 78.1901 53.4298C77.8401 54.0098 77.0801 54.2798 76.3901 54.0298C76.1301 53.9298 75.8901 53.7698 75.6401 53.6398C75.3001 53.4498 74.9501 53.2598 74.5701 53.0498C74.5201 53.8298 74.5201 54.5398 74.4201 55.2198C74.3101 55.9198 73.7201 56.3698 73.0301 56.3898C72.3201 56.4098 71.7201 55.9398 71.5701 55.2098C71.5101 54.9098 71.5001 54.5998 71.4901 54.2998C71.4801 53.9098 71.4901 53.5198 71.4901 53.0098C70.9201 53.3398 70.4601 53.6098 69.9901 53.8598C69.1301 54.3198 68.2401 54.1398 67.8201 53.4198C67.3701 52.6498 67.6202 51.7898 68.4802 51.2398C68.9302 50.9598 69.4002 50.6998 69.9802 50.3698C69.4302 50.0498 68.9701 49.7898 68.5201 49.5098C67.6401 48.9698 67.3701 48.1198 67.8101 47.3498C68.2401 46.5998 69.1301 46.4198 70.0401 46.9098C70.4901 47.1498 70.9301 47.4098 71.5001 47.7398L71.4901 47.7298Z" fill="#102E6E"/>
<path id="Vector_4" d="M44.3101 52.9801C44.3101 53.6801 44.3301 54.2401 44.3101 54.8001C44.2701 55.7501 43.7001 56.3601 42.8501 56.3901C41.9901 56.4101 41.3601 55.7701 41.3201 54.8001C41.3001 54.2401 41.3201 53.6801 41.3201 53.0001C40.7701 53.3201 40.3101 53.5801 39.8401 53.8401C38.9401 54.3301 38.0401 54.1501 37.6201 53.4001C37.1801 52.6201 37.4401 51.7801 38.3101 51.2401C38.7501 50.9701 39.2001 50.7201 39.7601 50.4001C39.1301 50.0001 38.5401 49.6801 38.0101 49.2901C37.3801 48.8201 37.2401 48.0401 37.6001 47.4001C37.9701 46.7401 38.7401 46.4601 39.4901 46.7601C39.7701 46.8701 40.0301 47.0401 40.3001 47.1901C40.6001 47.3601 40.9001 47.5301 41.3101 47.7701C41.3101 47.1301 41.3001 46.6001 41.3101 46.0701C41.3401 45.0401 41.9401 44.3701 42.8201 44.3701C43.7001 44.3701 44.2901 45.0301 44.3201 46.0701C44.3301 46.5801 44.3201 47.1001 44.3201 47.7501C44.9301 47.4101 45.4401 47.1001 45.9801 46.8401C46.7901 46.4501 47.6101 46.6701 48.0301 47.3601C48.4601 48.0801 48.2501 48.9101 47.4701 49.4401C47.1801 49.6401 46.8601 49.8001 46.5601 49.9801C46.3601 50.1001 46.1701 50.2201 45.8901 50.4101C46.4301 50.7201 46.8901 50.9801 47.3401 51.2601C48.2401 51.8201 48.4901 52.6901 48.0001 53.4801C47.5601 54.1901 46.6801 54.3501 45.8201 53.8701C45.3701 53.6201 44.9201 53.3601 44.3201 53.0101L44.3101 52.9801Z" fill="#102E6E"/>
<path id="Vector_5" d="M59.4198 47.74C60.0098 47.4 60.4698 47.11 60.9398 46.86C61.8098 46.4 62.6698 46.6 63.1098 47.33C63.5398 48.06 63.2998 48.93 62.4798 49.45C62.0298 49.74 61.5498 50 60.9798 50.33C61.6198 50.74 62.2298 51.08 62.7698 51.49C63.3798 51.96 63.4798 52.75 63.0998 53.4C62.7498 54 61.9998 54.26 61.3198 54.02C61.0798 53.93 60.8598 53.79 60.6298 53.67C60.2598 53.47 59.8998 53.26 59.4198 52.98C59.4198 53.62 59.4198 54.14 59.4198 54.67C59.3998 55.71 58.8098 56.38 57.9298 56.38C57.0498 56.38 56.4498 55.73 56.4198 54.69C56.4098 54.17 56.4198 53.66 56.4198 53C55.7998 53.34 55.2698 53.66 54.7098 53.93C53.9498 54.3 53.1198 54.07 52.7298 53.41C52.2998 52.69 52.4798 51.89 53.1998 51.36C53.4398 51.18 53.7198 51.04 53.9798 50.88C54.2398 50.72 54.4998 50.57 54.8598 50.35C54.5798 50.18 54.3698 50.05 54.1598 49.93C52.5698 49.01 52.1698 48.3 52.6898 47.36C53.2098 46.41 54.0898 46.41 55.6998 47.34C55.8998 47.45 56.0998 47.55 56.4098 47.71C56.4098 47.1 56.4098 46.59 56.4098 46.09C56.4298 45.01 57.0298 44.33 57.9298 44.34C58.8298 44.35 59.3998 45.04 59.4098 46.14C59.4098 46.63 59.4098 47.12 59.4098 47.75L59.4198 47.74Z" fill="#102E6E"/>
</g>
</svg>
