<svg width="38" height="38" viewBox="0 0 38 38" fill="none" xmlns="http://www.w3.org/2000/svg">
<path d="M22.3287 34.9601C21.7739 34.7245 21.5991 34.2989 21.6067 33.7061C21.6371 32.1937 21.6143 30.6889 21.6143 29.1765V28.8269C24.4643 30.6813 27.2915 30.6889 30.1643 28.8269C30.1643 28.9409 30.1643 29.0473 30.1643 29.1461C30.1643 30.6661 30.1491 32.1861 30.1719 33.7061C30.1795 34.2989 30.0047 34.7169 29.4499 34.9601H28.9787C28.0287 34.4205 27.0787 33.8885 26.1363 33.3413C25.9615 33.2349 25.8323 33.2425 25.6499 33.3413C24.7075 33.8885 23.7499 34.4205 22.7999 34.9601H22.3287Z" fill="white"/>
<path d="M27.7855 16.1957C27.2003 16.1273 26.6455 16.0133 26.0831 15.9981C22.6935 15.8993 19.7067 18.2173 18.9391 21.5157C18.5363 23.2409 18.7719 24.8825 19.5927 26.4481C19.6611 26.5773 19.7067 26.7445 19.7067 26.8889C19.7143 28.1429 19.7067 29.3969 19.7067 30.6889C19.5851 30.6889 19.4787 30.6889 19.3799 30.6889C15.9599 30.6889 12.5323 30.6889 9.1123 30.6889C7.7519 30.6889 6.8855 29.8301 6.8855 28.4697C6.8855 21.2497 6.8855 14.0373 6.8855 6.81728C6.8855 5.47968 7.7519 4.61328 9.0971 4.61328C14.5843 4.61328 20.0791 4.61328 25.5663 4.61328C26.9115 4.61328 27.7855 5.47208 27.7855 6.80968C27.7855 9.84968 27.7855 12.8897 27.7855 15.9297C27.7855 16.0209 27.7855 16.1045 27.7855 16.1881V16.1957ZM16.6135 11.2557C17.9283 11.2557 19.2431 11.2557 20.5579 11.2557C21.1659 11.2557 21.5991 10.8681 21.6067 10.3209C21.6143 9.75848 21.1811 9.36328 20.5579 9.35568C19.5015 9.35568 18.4375 9.35568 17.3811 9.35568C15.8079 9.35568 14.2347 9.35568 12.6615 9.35568C12.2207 9.35568 11.8939 9.53048 11.7115 9.93328C11.4303 10.5641 11.8939 11.2481 12.6083 11.2557C13.9459 11.2633 15.2759 11.2557 16.6135 11.2557ZM16.6135 13.1557C15.3063 13.1557 13.9991 13.1557 12.6919 13.1557C12.0535 13.1557 11.6279 13.5357 11.6203 14.0981C11.6203 14.6605 12.0459 15.0557 12.6767 15.0557C15.2987 15.0557 17.9207 15.0557 20.5427 15.0557C21.1659 15.0557 21.5991 14.6605 21.5991 14.0981C21.5991 13.5433 21.1659 13.1557 20.5275 13.1557C19.2203 13.1557 17.9131 13.1557 16.6059 13.1557H16.6135ZM14.9415 16.9481C14.1663 16.9481 13.3987 16.9481 12.6235 16.9481C12.0459 16.9481 11.6203 17.3585 11.6279 17.8981C11.6279 18.4377 12.0535 18.8405 12.6311 18.8405C14.1739 18.8405 15.7167 18.8405 17.2595 18.8405C17.8447 18.8405 18.2703 18.4453 18.2703 17.9057C18.2703 17.3585 17.8523 16.9481 17.2519 16.9481C16.4767 16.9481 15.7091 16.9481 14.9339 16.9481H14.9415Z" fill="white"/>
<path d="M20.6643 23.0964C20.6643 20.2236 23.0203 17.8904 25.9083 17.898C28.7887 17.898 31.1219 20.2616 31.1143 23.142C31.1067 25.9996 28.7507 28.3328 25.8855 28.3328C23.0051 28.3328 20.6643 25.9844 20.6643 23.104V23.0964ZM25.1483 23.2712C24.9203 23.1192 24.7075 22.9748 24.4871 22.8456C24.0311 22.572 23.4915 22.6936 23.2027 23.1192C22.9063 23.5524 23.0051 24.1148 23.4459 24.4264C23.9247 24.7608 24.4111 25.08 24.8975 25.3916C25.3459 25.6728 25.8703 25.5664 26.1819 25.1408C26.3339 24.9356 26.4707 24.7152 26.6151 24.5024C27.1091 23.7576 27.6183 23.0128 28.1047 22.2604C28.3631 21.8576 28.3023 21.4168 27.9831 21.0976C27.6715 20.7784 27.2003 20.7024 26.8203 20.9532C26.6531 21.0596 26.5239 21.2344 26.4023 21.4016C25.9767 22.0172 25.5663 22.6404 25.1407 23.2788L25.1483 23.2712Z" fill="white"/>
</svg>
