<svg width="24" height="26" viewBox="0 0 24 26" fill="none" xmlns="http://www.w3.org/2000/svg">
<path d="M12.9889 0C13.6389 0.15689 14.3169 0.235335 14.9276 0.487479C17.2361 1.44003 18.6482 3.16581 19.074 5.64243C19.5503 8.38801 18.2055 11.1896 15.7177 12.5232C13.2971 13.8231 10.8821 13.6886 8.624 12.1197C6.80856 10.859 5.85602 9.05479 5.8168 6.84712C5.77197 4.39292 6.83098 2.46541 8.85934 1.09263C9.75585 0.487479 10.7588 0.151287 11.8346 0.0448258C11.8851 0.0448258 11.9299 0.022413 11.9803 0.0112065C12.3165 0.0112065 12.6527 0.0112065 12.9889 0.0112065V0Z" fill="white"/>
<path d="M12.4231 25.7577C9.5262 25.7353 6.87588 24.878 4.52814 23.1354C3.14415 22.1044 1.98988 20.8493 1.09337 19.3701C0.958894 19.1459 0.914068 18.9218 1.03174 18.6809C2.1972 16.2435 4.08549 14.6802 6.70779 14.019C6.9095 13.9686 7.11682 13.9406 7.32414 13.8957C7.72757 13.8117 8.07497 13.9294 8.40556 14.1647C9.72792 15.0948 11.2016 15.5095 12.8097 15.4422C14.048 15.3918 15.2415 15.0892 16.2332 14.3608C16.9785 13.8173 17.6901 13.8509 18.4857 14.0694C20.727 14.6914 22.4136 16.0306 23.6071 18.0141C24.1226 18.8714 24.145 18.8882 23.5903 19.7231C22.2511 21.7402 20.5141 23.3147 18.3345 24.3905C16.4798 25.3095 14.5075 25.7465 12.4175 25.7633L12.4231 25.7577Z" fill="white"/>
</svg>
