<svg width="20" height="22" viewBox="0 0 20 22" fill="none" xmlns="http://www.w3.org/2000/svg">
<path d="M10.2684 0C10.8235 0.133972 11.4024 0.200958 11.9239 0.416271C13.8953 1.22967 15.101 2.70337 15.4646 4.81821C15.8713 7.16273 14.723 9.55509 12.5986 10.6939C10.5316 11.8039 8.46938 11.6891 6.54113 10.3494C4.99088 9.27279 4.17748 7.73211 4.14399 5.84693C4.10571 3.75122 5.01002 2.10528 6.74209 0.933021C7.50765 0.416271 8.36411 0.129188 9.28278 0.0382778C9.32584 0.0382778 9.36412 0.019139 9.40718 0.00956955C9.69427 0.00956955 9.98135 0.00956955 10.2684 0.00956955V0Z" fill="#102E6E"/>
<path d="M9.78529 21.9952C7.31159 21.976 5.04842 21.244 3.04362 19.7559C1.86179 18.8755 0.876142 17.8037 0.110587 16.5406C-0.00424662 16.3492 -0.0425245 16.1578 0.0579547 15.9521C1.05318 13.8707 2.66563 12.5358 4.90488 11.9712C5.07713 11.9281 5.25416 11.9042 5.4312 11.8659C5.7757 11.7941 6.07235 11.8946 6.35465 12.0956C7.48384 12.8898 8.74222 13.2439 10.1154 13.1865C11.1729 13.1434 12.192 12.885 13.0389 12.263C13.6753 11.7989 14.2829 11.8276 14.9624 12.0142C16.8762 12.5453 18.3165 13.6889 19.3356 15.3827C19.7758 16.1147 19.7949 16.1291 19.3212 16.842C18.1777 18.5645 16.6944 19.909 14.8332 20.8277C13.2494 21.6124 11.5652 21.9856 9.78051 21.9999L9.78529 21.9952Z" fill="#102E6E"/>
</svg>
