<?xml version="1.0" encoding="UTF-8"?>
<!DOCTYPE svg PUBLIC "-//W3C//DTD SVG 1.1//EN" "http://www.w3.org/Graphics/SVG/1.1/DTD/svg11.dtd">
<svg xmlns="http://www.w3.org/2000/svg" version="1.1" width="52px" height="49px" style="shape-rendering:geometricPrecision; text-rendering:geometricPrecision; image-rendering:optimizeQuality; fill-rule:evenodd; clip-rule:evenodd" xmlns:xlink="http://www.w3.org/1999/xlink">
<g><path style="opacity:1" fill="#fafbfd" d="M -0.5,-0.5 C 16.8333,-0.5 34.1667,-0.5 51.5,-0.5C 51.5,15.8333 51.5,32.1667 51.5,48.5C 34.1667,48.5 16.8333,48.5 -0.5,48.5C -0.5,32.1667 -0.5,15.8333 -0.5,-0.5 Z"/></g>
<g><path style="opacity:1" fill="#204ebd" d="M 20.5,2.5 C 39.5369,2.36667 48.3703,11.7 47,30.5C 40.4633,46.519 29.2966,51.019 13.5,44C 3.29581,35.8069 0.795815,25.6402 6,13.5C 9.85677,8.46777 14.6901,4.8011 20.5,2.5 Z"/></g>
<g><path style="opacity:1" fill="#869fda" d="M 22.5,19.5 C 22.3893,20.1174 22.056,20.6174 21.5,21C 22.7932,21.49 24.1266,21.6567 25.5,21.5C 24.9106,25.9707 25.5772,29.9707 27.5,33.5C 26.791,34.404 25.791,34.7373 24.5,34.5C 24.5,30.5 24.5,26.5 24.5,22.5C 23.1667,22.5 21.8333,22.5 20.5,22.5C 20.2852,20.8212 20.9519,19.8212 22.5,19.5 Z"/></g>
<g><path style="opacity:1" fill="#dae2f3" d="M 27.5,33.5 C 25.5772,29.9707 24.9106,25.9707 25.5,21.5C 24.1266,21.6567 22.7932,21.49 21.5,21C 22.056,20.6174 22.3893,20.1174 22.5,19.5C 24.3841,19.2882 25.7174,18.2882 26.5,16.5C 27.4954,22.1278 27.8288,27.7945 27.5,33.5 Z"/></g>
</svg>
