<?xml version="1.0" encoding="UTF-8"?>
<!DOCTYPE svg PUBLIC "-//W3C//DTD SVG 1.1//EN" "http://www.w3.org/Graphics/SVG/1.1/DTD/svg11.dtd">
<svg xmlns="http://www.w3.org/2000/svg" version="1.1" width="53px" height="51px" style="shape-rendering:geometricPrecision; text-rendering:geometricPrecision; image-rendering:optimizeQuality; fill-rule:evenodd; clip-rule:evenodd" xmlns:xlink="http://www.w3.org/1999/xlink">
<g><path style="opacity:1" fill="#fafbfd" d="M -0.5,-0.5 C 17.1667,-0.5 34.8333,-0.5 52.5,-0.5C 52.5,16.5 52.5,33.5 52.5,50.5C 34.8333,50.5 17.1667,50.5 -0.5,50.5C -0.5,33.5 -0.5,16.5 -0.5,-0.5 Z"/></g>
<g><path style="opacity:1" fill="#204fbd" d="M 19.5,3.5 C 39.822,1.98944 49.322,11.3228 48,31.5C 42.9496,44.5374 33.4496,49.7041 19.5,47C 4.12342,39.4026 0.290083,27.9026 8,12.5C 11.1607,8.49052 14.994,5.49052 19.5,3.5 Z"/></g>
<g><path style="opacity:1" fill="#e0e6f5" d="M 22.5,17.5 C 25.1873,17.3359 27.854,17.5026 30.5,18C 33.4052,21.3742 33.0719,24.3742 29.5,27C 20.1623,31.7612 21.1623,33.9279 32.5,33.5C 28.5546,34.4909 24.5546,34.8242 20.5,34.5C 20.3433,33.1266 20.51,31.7932 21,30.5C 23.4878,28.2567 26.1544,26.2567 29,24.5C 30,19.8333 28.3333,18.5 24,20.5C 23.5172,21.448 23.3505,22.448 23.5,23.5C 22.5,23.5 21.5,23.5 20.5,23.5C 20.6036,21.2972 21.2702,19.2972 22.5,17.5 Z"/></g>
</svg>
