<svg width="21" height="21" viewBox="0 0 47 48" fill="none" xmlns="http://www.w3.org/2000/svg">
<circle cx="23.4464" cy="23.6781" r="23.4464" fill="#102E6E"/>
<path d="M24.8174 9.61023C25.054 9.83155 25.3134 10.03 25.5119 10.2818C27.6716 12.9911 29.6711 15.8071 31.373 18.8293C32.3804 20.6151 33.2656 22.4619 33.8685 24.4309C34.5096 26.5143 34.6775 28.613 34.0288 30.727C33.5404 32.3297 32.7009 33.7339 31.4951 34.9092C30.1748 36.1989 28.618 37.0613 26.8169 37.481C25.054 37.8931 23.3063 37.8245 21.5892 37.275C19.5439 36.611 17.8649 35.4129 16.6134 33.6576C15.0183 31.4291 14.4307 28.9565 14.8886 26.2472C15.2397 24.1562 16.041 22.233 16.9949 20.3556C18.8876 16.639 21.2916 13.2505 23.894 10.0071C24.0161 9.84681 24.2069 9.7476 24.3671 9.61023C24.5121 9.61023 24.6571 9.61023 24.8098 9.61023H24.8174ZM18.9181 26.1099C18.9257 25.9114 18.9334 25.7054 18.9486 25.507C18.9639 25.2551 18.8723 25.072 18.6129 25.0262C18.3534 24.9804 18.1931 25.1178 18.1168 25.3543C17.9794 25.7893 17.8115 26.2167 17.7047 26.6593C17.3002 28.2544 17.5063 29.7731 18.3763 31.1697C19.9331 33.6576 22.9934 34.8634 25.84 34.1384C26.069 34.0773 26.275 33.9934 26.2521 33.7186C26.2369 33.4439 26.0232 33.3752 25.7866 33.3447C24.4282 33.1768 23.1689 32.7341 22.0547 31.9404C20.0629 30.5133 18.9868 28.5825 18.9181 26.1175V26.1099Z" fill="white"/>
</svg>
