<svg width="21" height="21" viewBox="0 0 21 21" fill="none" xmlns="http://www.w3.org/2000/svg">
<circle cx="10.1591" cy="10.1591" r="10.1591" fill="#102E6E"/>
<path d="M3.48314 13.3544C3.54307 13.0653 3.70172 12.8255 3.84979 12.5787C4.43857 11.5774 5.02735 10.5762 5.61613 9.57137C5.63728 9.53612 5.65844 9.49734 5.68312 9.44798C5.59498 9.39862 5.51389 9.34926 5.4328 9.30343C5.27767 9.21176 5.20363 9.08131 5.22831 8.90151C5.25299 8.7217 5.36228 8.61241 5.53504 8.56658C6.03215 8.43613 6.52926 8.30921 7.02637 8.18581C7.24849 8.1294 7.43886 8.26337 7.50585 8.51722C7.61162 8.92971 7.7174 9.34221 7.82316 9.75823C7.84079 9.8358 7.86194 9.90983 7.87956 9.9874C7.91482 10.1496 7.86195 10.2835 7.73502 10.3787C7.60105 10.481 7.45297 10.488 7.30842 10.4034C7.2238 10.3576 7.14272 10.3082 7.04048 10.2483C6.47991 11.2002 5.91933 12.1486 5.34466 13.1217C5.41517 13.1217 5.45747 13.1217 5.50331 13.1217C6.53984 13.1217 7.57284 13.1217 8.60937 13.1217C8.96898 13.1217 9.27924 13.372 9.36385 13.714C9.45199 14.0701 9.29334 14.4367 8.96899 14.5954C8.85617 14.6518 8.71867 14.687 8.59527 14.687C7.28727 14.6941 5.97574 14.6941 4.66774 14.687C4.10717 14.687 3.64883 14.3098 3.51839 13.7633C3.51134 13.7386 3.50076 13.7175 3.49019 13.6928C3.49019 13.58 3.49019 13.4672 3.49019 13.3544H3.48314Z" fill="white"/>
<path d="M13.1574 6.89188C13.2491 6.83547 13.3267 6.78611 13.4078 6.7438C13.5558 6.66624 13.7039 6.66624 13.8379 6.76496C13.9683 6.86015 14.0247 7.00117 13.9859 7.1563C13.859 7.67456 13.7286 8.19635 13.5876 8.71109C13.5347 8.905 13.3302 9.01077 13.1292 8.95789C12.6286 8.83096 12.128 8.69699 11.6273 8.56654C11.4651 8.52424 11.3629 8.42199 11.3417 8.24924C11.3171 8.06943 11.3876 7.93546 11.5427 7.84379C11.6273 7.79444 11.7155 7.74155 11.8107 7.68514C11.2677 6.75085 10.7248 5.82362 10.1712 4.87523C10.1395 4.92811 10.1148 4.9669 10.0902 5.00568C9.6565 5.74958 9.22285 6.49701 8.78567 7.23739C8.54241 7.64989 8.05587 7.77328 7.67158 7.52649C7.31549 7.2938 7.20973 6.84252 7.43184 6.4547C7.76325 5.8765 8.10171 5.30183 8.43664 4.72715C8.66933 4.32876 8.8985 3.92684 9.13119 3.52845C9.61772 2.6964 10.7142 2.69288 11.1972 3.52492C11.8212 4.59318 12.4417 5.66144 13.0622 6.7297C13.0904 6.77906 13.1187 6.82489 13.1539 6.88483L13.1574 6.89188Z" fill="white"/>
<path d="M12.128 13.1146H14.9908C14.9626 13.0652 14.9414 13.0229 14.9202 12.9841C14.469 12.2191 14.0142 11.4575 13.5594 10.6925C13.4536 10.5127 13.4078 10.3223 13.4465 10.1178C13.5135 9.78993 13.7568 9.55019 14.0847 9.49026C14.3914 9.43385 14.7122 9.5784 14.885 9.86397C15.2305 10.4386 15.569 11.0168 15.911 11.595C16.1718 12.0322 16.4363 12.4694 16.6866 12.9101C17.0814 13.6011 16.7395 14.4402 15.985 14.6447C15.8651 14.6764 15.7347 14.687 15.6113 14.687C14.5007 14.687 13.3937 14.687 12.2831 14.687H12.128C12.128 14.8139 12.128 14.9303 12.128 15.0466C12.128 15.2229 12.0575 15.3639 11.8953 15.4344C11.7261 15.512 11.5744 15.4662 11.444 15.3357C11.0632 14.9585 10.6825 14.5848 10.3017 14.204C10.1254 14.0277 10.1254 13.8021 10.2982 13.6223C10.6754 13.2345 11.0562 12.8537 11.4334 12.4659C11.5603 12.3354 11.7119 12.2861 11.8847 12.3566C12.0575 12.4271 12.128 12.5681 12.128 12.7514C12.128 12.8643 12.128 12.9771 12.128 13.104V13.1146Z" fill="white"/>
</svg>
