<svg width="35" height="35" viewBox="0 0 35 35" fill="none" xmlns="http://www.w3.org/2000/svg">
<circle cx="17.5" cy="17.5" r="17.5" fill="#1FB456"/>
<path d="M10.1497 15.2981C9.82032 15.5745 9.53212 15.8215 9.23805 16.0627C8.87339 16.3685 8.44404 16.3509 8.16761 16.0215C7.89706 15.698 7.96176 15.2746 8.32641 14.9628C10.8437 12.8278 13.3669 10.6987 15.8842 8.56963C16.3958 8.14028 16.9075 7.70505 17.4192 7.2757C17.8545 6.91105 18.1485 6.90517 18.5838 7.2757C21.5363 9.76946 24.4888 12.2691 27.4354 14.7629C27.5531 14.8628 27.6766 14.9569 27.7883 15.0687C28.1294 15.4157 28.0353 15.9862 27.606 16.1979C27.4648 16.2685 27.359 16.2685 27.2355 16.145C26.2121 15.151 24.9946 14.5276 23.5889 14.2571C20.0071 13.5689 16.4135 15.7921 15.4254 19.321C14.9549 20.9914 15.0843 22.6264 15.7842 24.2144C15.8312 24.3203 15.8547 24.4379 15.8606 24.5556C15.8724 24.8908 15.8665 25.2261 15.8606 25.5613C15.8489 26.3553 15.2313 26.9729 14.4373 26.9788C13.7315 26.9846 13.0257 26.9846 12.32 26.9788C11.0848 26.967 10.1556 26.0377 10.1497 24.7967C10.1497 21.7266 10.1497 18.6564 10.1497 15.5863C10.1497 15.5039 10.1497 15.4275 10.1497 15.2922V15.2981Z" fill="white"/>
<path d="M28.0001 21.2852C28.0001 24.4142 25.4417 26.9844 22.3127 26.9844C19.1367 26.9844 16.5782 24.4318 16.5782 21.2617C16.5782 18.1327 19.1367 15.5625 22.2657 15.5625C25.4417 15.5625 28.0001 18.1092 28.0001 21.2793V21.2852ZM23.0185 18.4033C23.0067 18.3503 22.995 18.2915 22.9773 18.2386C22.8773 17.9092 22.595 17.6975 22.2657 17.7093C21.9363 17.721 21.6481 17.9504 21.5952 18.2856C21.5716 18.4327 21.5128 18.4738 21.3834 18.515C20.6012 18.7679 20.0954 19.5149 20.1542 20.3265C20.2071 21.1382 20.8071 21.8087 21.6187 21.9557C21.7657 21.9792 21.9187 21.9616 22.0598 21.991C22.3892 22.0616 22.8832 21.7557 22.995 22.338C23.0479 22.6262 22.8362 22.6968 22.0539 22.6968C21.8834 22.6968 21.7128 22.6909 21.5422 22.6968C21.2011 22.7144 20.9247 22.9732 20.8717 23.3084C20.8247 23.6378 21.0188 23.9672 21.3481 24.0789C21.4187 24.1024 21.4893 24.1142 21.5658 24.1377C21.5775 24.1907 21.5893 24.2495 21.6069 24.3024C21.701 24.6318 21.9892 24.8435 22.3186 24.8318C22.6421 24.82 22.9362 24.5906 22.9891 24.2554C23.0126 24.1083 23.0773 24.0672 23.2008 24.026C23.9831 23.7731 24.483 23.0261 24.4301 22.2145C24.3771 21.4087 23.7831 20.7323 22.9832 20.5971C22.6774 20.5441 22.3598 20.5618 22.048 20.5559C21.7422 20.55 21.5775 20.4324 21.5775 20.203C21.5775 19.9736 21.7422 19.8442 22.0363 19.8442C22.3657 19.8442 22.6891 19.8501 23.0185 19.8442C23.4067 19.8325 23.7066 19.5208 23.7125 19.1443C23.7125 18.7679 23.4773 18.5091 23.0126 18.4033H23.0185Z" fill="white"/>
</svg>
