<svg width="19" height="22" viewBox="0 0 19 22" fill="none" xmlns="http://www.w3.org/2000/svg">
<path d="M5.48066 0.559372C4.92207 0.792965 4.55645 1.18398 4.37871 1.75273C4.28223 2.05234 4.27715 2.21484 4.27715 4.50507V6.93242L3.11934 6.94765L1.96152 6.96289L1.62637 7.13046C1.2252 7.32851 0.966211 7.59765 0.758008 8.04453C0.625977 8.33398 0.600586 8.44062 0.600586 8.79101C0.600586 9.23789 0.666602 9.48671 0.869727 9.82187C0.976367 9.99961 4.07402 12.9703 7.6998 16.3777C8.3498 16.9871 8.75098 17.1953 9.36543 17.2309C9.8834 17.2664 10.3303 17.1598 10.7111 16.9262C10.9396 16.7891 15.4389 12.5844 17.5107 10.5836C18.3537 9.76093 18.4705 9.55273 18.4705 8.8164C18.4705 8.36953 18.4553 8.30351 18.308 7.99882C18.11 7.59765 17.79 7.28789 17.3889 7.1C17.1045 6.96289 17.0791 6.96289 15.8705 6.94765L14.6365 6.93242V4.60664C14.6365 3.14922 14.6162 2.17422 14.5807 1.98632C14.4689 1.37695 14.0729 0.853903 13.5295 0.599997L13.24 0.462887L9.50762 0.452732L5.7752 0.437496L5.48066 0.559372Z" fill="white"/>
<path d="M1.47913 20.0594C1.00686 20.3793 1.0221 21.1562 1.49944 21.4559L1.6721 21.5625H9.53811C17.2975 21.5625 17.4041 21.5625 17.5717 21.4609C17.8155 21.3086 17.9373 21.0801 17.9373 20.75C17.9373 20.4199 17.8155 20.1914 17.5717 20.0391C17.4041 19.9375 17.2975 19.9375 9.53303 19.9375H1.66194L1.47913 20.0594Z" fill="white"/>
</svg>
