<svg width="43" height="43" viewBox="0 0 43 43" fill="none" xmlns="http://www.w3.org/2000/svg">
<g filter="url(#filter0_d_266_511)">
<rect x="4" width="35" height="35" rx="17.5" fill="#2455BE"/>
<path d="M17.4807 7.55937C16.9221 7.79296 16.5564 8.18398 16.3787 8.75273C16.2822 9.05234 16.2771 9.21484 16.2771 11.5051V13.9324L15.1193 13.9477L13.9615 13.9629L13.6264 14.1305C13.2252 14.3285 12.9662 14.5977 12.758 15.0445C12.626 15.334 12.6006 15.4406 12.6006 15.791C12.6006 16.2379 12.6666 16.4867 12.8697 16.8219C12.9764 16.9996 16.074 19.9703 19.6998 23.3777C20.3498 23.9871 20.751 24.1953 21.3654 24.2309C21.8834 24.2664 22.3303 24.1598 22.7111 23.9262C22.9396 23.7891 27.4389 19.5844 29.5107 17.5836C30.3537 16.7609 30.4705 16.5527 30.4705 15.8164C30.4705 15.3695 30.4553 15.3035 30.308 14.9988C30.11 14.5977 29.79 14.2879 29.3889 14.1C29.1045 13.9629 29.0791 13.9629 27.8705 13.9477L26.6365 13.9324V11.6066C26.6365 10.1492 26.6162 9.17422 26.5807 8.98632C26.4689 8.37695 26.0729 7.8539 25.5295 7.6L25.24 7.46289L21.5076 7.45273L17.7752 7.4375L17.4807 7.55937Z" fill="white"/>
<path d="M13.4791 27.0594C13.0069 27.3793 13.0221 28.1562 13.4994 28.4559L13.6721 28.5625H21.5381C29.2975 28.5625 29.4041 28.5625 29.5717 28.4609C29.8155 28.3086 29.9373 28.0801 29.9373 27.75C29.9373 27.4199 29.8155 27.1914 29.5717 27.0391C29.4041 26.9375 29.2975 26.9375 21.533 26.9375H13.6619L13.4791 27.0594Z" fill="white"/>
</g>
<defs>
<filter id="filter0_d_266_511" x="0" y="0" width="43" height="43" filterUnits="userSpaceOnUse" color-interpolation-filters="sRGB">
<feFlood flood-opacity="0" result="BackgroundImageFix"/>
<feColorMatrix in="SourceAlpha" type="matrix" values="0 0 0 0 0 0 0 0 0 0 0 0 0 0 0 0 0 0 127 0" result="hardAlpha"/>
<feOffset dy="4"/>
<feGaussianBlur stdDeviation="2"/>
<feComposite in2="hardAlpha" operator="out"/>
<feColorMatrix type="matrix" values="0 0 0 0 0 0 0 0 0 0 0 0 0 0 0 0 0 0 0.25 0"/>
<feBlend mode="normal" in2="BackgroundImageFix" result="effect1_dropShadow_266_511"/>
<feBlend mode="normal" in="SourceGraphic" in2="effect1_dropShadow_266_511" result="shape"/>
</filter>
</defs>
</svg>
