<svg width="35" height="35" viewBox="0 0 35 35" fill="none" xmlns="http://www.w3.org/2000/svg">
<circle cx="17.5" cy="17.5" r="17.5" fill="#1FB456"/>
<g clip-path="url(#clip0_266_544)">
<path d="M23.3143 26.9878H18.2027C18.2027 26.8989 18.2027 26.8181 18.2027 26.7333C18.2027 25.8444 18.2027 24.9555 18.2027 24.0666C18.2027 23.3919 17.7808 22.9757 17.1009 22.9757C16.4702 22.9757 15.8394 22.9757 15.2086 22.9757C14.5369 22.9757 14.1232 23.3838 14.1191 24.0545C14.1191 24.9434 14.1191 25.8323 14.1191 26.7212C14.1191 26.806 14.1191 26.8909 14.1191 26.9797C14.0372 26.9878 13.984 27 13.9307 27C12.1449 27 10.3551 27 8.56927 27C8.2416 27 8.03681 26.8424 7.99995 26.5798C7.95899 26.2727 8.16378 26.0222 8.48326 26.002C8.64709 25.9939 8.81502 26.002 9.00753 26.002V25.707C9.00753 20.7899 9.00753 15.8727 9.00753 10.9555C9.00753 10.2606 9.27376 9.92521 9.95367 9.77167C13.9553 8.85854 17.9528 7.94945 21.9504 7.04036C22.7409 6.86258 23.3143 7.30298 23.3143 8.10702C23.3143 14.3292 23.3143 20.5515 23.3143 26.7777C23.3143 26.8383 23.3143 26.903 23.3143 26.9919V26.9878ZM13.0911 12.907C12.9313 12.907 12.7716 12.903 12.6119 12.907C12.2842 12.9191 12.0876 13.105 12.0794 13.4202C12.0712 13.7434 12.0712 14.0666 12.0794 14.3858C12.0876 14.705 12.2801 14.8989 12.6037 14.903C12.9313 14.9111 13.259 14.9111 13.5867 14.903C13.9021 14.8949 14.1028 14.7171 14.1191 14.4101C14.1355 14.0707 14.1355 13.7313 14.1191 13.3959C14.1069 13.0848 13.9062 12.9111 13.5908 12.8989C13.4228 12.8949 13.2549 12.8989 13.087 12.8989L13.0911 12.907ZM16.1671 14.9111C16.3268 14.9111 16.4865 14.9151 16.6463 14.9111C16.9739 14.8989 17.1705 14.7212 17.1828 14.402C17.1951 14.0707 17.1951 13.7393 17.1828 13.4121C17.1705 13.101 16.9739 12.9191 16.6627 12.9111C16.3268 12.903 15.9909 12.903 15.6592 12.9111C15.3602 12.9191 15.1595 13.109 15.1472 13.3959C15.1349 13.7434 15.1349 14.0868 15.1472 14.4343C15.1554 14.7131 15.3561 14.8949 15.6428 14.9111C15.8189 14.9191 15.995 14.9111 16.1712 14.9111H16.1671ZM19.2348 14.9111C19.3946 14.9111 19.5543 14.9151 19.7141 14.9111C20.0294 14.8989 20.2301 14.7292 20.2465 14.4222C20.2629 14.0787 20.2629 13.7313 20.2465 13.3838C20.2301 13.0969 20.0376 12.9191 19.7468 12.9111C19.3946 12.903 19.0464 12.903 18.6942 12.9111C18.4239 12.9191 18.2232 13.109 18.215 13.3717C18.2027 13.7232 18.2027 14.0787 18.215 14.4343C18.2232 14.709 18.428 14.8949 18.7106 14.907C18.8867 14.9151 19.0628 14.907 19.2389 14.907L19.2348 14.9111ZM13.1034 17.9333C13.2631 17.9333 13.4228 17.9373 13.5826 17.9333C13.9021 17.9212 14.1028 17.7515 14.1191 17.4444C14.1355 17.101 14.1355 16.7535 14.1191 16.406C14.1028 16.1191 13.9102 15.9414 13.6235 15.9333C13.2713 15.9252 12.9232 15.9212 12.5709 15.9333C12.2883 15.9414 12.0917 16.1353 12.0835 16.4181C12.0712 16.7575 12.0753 17.0929 12.0835 17.4323C12.0917 17.7272 12.2842 17.9171 12.5791 17.9292C12.7552 17.9373 12.9313 17.9292 13.1075 17.9292L13.1034 17.9333ZM16.1507 17.9333C16.3186 17.9333 16.4865 17.9373 16.6545 17.9333C16.9698 17.9212 17.1705 17.7474 17.1828 17.4404C17.1992 17.101 17.1992 16.7616 17.1828 16.4262C17.1705 16.1191 16.9698 15.9373 16.6545 15.9333C16.3186 15.9252 15.9827 15.9252 15.651 15.9333C15.352 15.9414 15.1554 16.1313 15.1472 16.4222C15.139 16.7616 15.139 17.0969 15.1472 17.4363C15.1554 17.7272 15.352 17.9171 15.6469 17.9292C15.8148 17.9373 15.9827 17.9292 16.1507 17.9292V17.9333ZM19.2185 17.9333C19.3864 17.9333 19.5543 17.9373 19.7223 17.9333C20.0253 17.9212 20.226 17.7515 20.2424 17.4565C20.2588 17.105 20.2629 16.7494 20.2424 16.3939C20.226 16.107 20.0294 15.9373 19.7345 15.9333C19.3905 15.9252 19.0464 15.9252 18.7065 15.9333C18.4116 15.9414 18.215 16.1393 18.2109 16.4303C18.2027 16.7696 18.2027 17.109 18.2109 17.4444C18.2191 17.7232 18.4157 17.9131 18.6983 17.9292C18.8744 17.9373 19.0505 17.9292 19.2226 17.9292L19.2185 17.9333Z" fill="white"/>
<path d="M23.9369 10.5959C24.0147 10.6283 24.0802 10.6566 24.1417 10.6848C24.8707 11.0404 25.5916 11.404 26.3248 11.7555C26.7835 11.9778 26.9924 12.3252 26.9883 12.8303C26.9842 17.1172 26.9883 21.404 26.9883 25.6909V25.998C27.1808 25.998 27.3528 25.9899 27.5248 25.998C27.8034 26.0182 28 26.2242 28.0041 26.4909C28.0041 26.7535 27.8279 26.9838 27.5617 26.9838C26.3575 26.9959 25.1574 26.9879 23.941 26.9879V10.5959H23.9369Z" fill="white"/>
<path d="M15.1554 23.99H17.1665V26.9839H15.1554V23.99Z" fill="white"/>
</g>
<defs>
<clipPath id="clip0_266_544">
<rect width="20" height="20" fill="white" transform="translate(8 7)"/>
</clipPath>
</defs>
</svg>
