<svg width="35" height="35" viewBox="0 0 35 35" fill="none" xmlns="http://www.w3.org/2000/svg">
<circle cx="17.5" cy="17.5" r="17.5" fill="#1FB456"/>
<path d="M15.559 18.575C15.1981 18.575 14.8774 18.575 14.5633 18.575C13.2601 18.575 11.9502 18.575 10.647 18.575C10.2059 18.575 9.9386 18.2877 10.0121 17.9067C10.0322 17.8132 10.0789 17.7129 10.1324 17.6327C12.3311 14.1976 14.5298 10.7692 16.7286 7.33415C16.8756 7.10693 17.0627 7 17.33 7C19.8028 7 22.2688 7 24.7415 7C24.9888 7 25.1893 7.06683 25.3163 7.28737C25.4499 7.52128 25.3898 7.73513 25.2561 7.94899C23.8727 10.1811 22.4893 12.4066 21.1126 14.6387C21.0592 14.7256 21.0124 14.8125 20.9389 14.9261C21.0458 14.9261 21.126 14.9394 21.2129 14.9394C22.3156 14.9394 23.4183 14.9394 24.521 14.9394C24.795 14.9394 25.0088 15.033 25.1225 15.3003C25.2294 15.561 25.1425 15.7748 24.9554 15.9553C24.9554 15.9553 24.942 15.9686 24.9353 15.9686C20.6315 20.2725 16.3209 24.5764 12.0103 28.8803C11.743 29.1476 11.469 29.1944 11.2151 29.0206C10.9678 28.8469 10.9143 28.5662 11.068 28.2253C12.5183 25.111 13.9685 22.0034 15.4187 18.8891C15.4588 18.7956 15.4989 18.7087 15.559 18.575Z" fill="white"/>
</svg>
