<svg width="21" height="21" viewBox="0 0 21 21" fill="none" xmlns="http://www.w3.org/2000/svg">
<circle cx="10.1591" cy="10.1591" r="10.1591" fill="#102E6E"/>
<path d="M9.0323 10.7832C8.8228 10.7832 8.63658 10.7832 8.45424 10.7832C7.69771 10.7832 6.9373 10.7832 6.18077 10.7832C5.92471 10.7832 5.76953 10.6163 5.81221 10.3952C5.82384 10.3409 5.85101 10.2827 5.88204 10.2361C7.15844 8.24199 8.43484 6.25174 9.71124 4.25761C9.79659 4.1257 9.90522 4.06363 10.0604 4.06363C11.4959 4.06363 12.9275 4.06363 14.3629 4.06363C14.5065 4.06363 14.6229 4.10243 14.6966 4.23045C14.7742 4.36624 14.7392 4.49039 14.6616 4.61454C13.8586 5.91033 13.0555 7.20225 12.2563 8.49805C12.2252 8.54849 12.1981 8.59892 12.1554 8.66487C12.2175 8.66487 12.264 8.67263 12.3145 8.67263C12.9546 8.67263 13.5948 8.67263 14.2349 8.67263C14.394 8.67263 14.5181 8.72695 14.5841 8.88213C14.6461 9.03344 14.5957 9.15759 14.4871 9.26234C14.4871 9.26234 14.4793 9.2701 14.4754 9.2701C11.9769 11.7686 9.47458 14.2671 6.97222 16.7655C6.81703 16.9207 6.65797 16.9479 6.51054 16.847C6.36699 16.7462 6.33596 16.5832 6.42519 16.3853C7.26707 14.5774 8.10895 12.7734 8.95083 10.9655C8.97411 10.9112 8.99739 10.8607 9.0323 10.7832Z" fill="white"/>
</svg>
