<svg width="35" height="35" viewBox="0 0 35 35" fill="none" xmlns="http://www.w3.org/2000/svg">
<circle cx="17.5" cy="17.5" r="17.5" fill="#1FB456"/>
<path d="M6 23.0039C6.10324 22.5059 6.37652 22.0929 6.6316 21.6678C7.64582 19.943 8.66005 18.2182 9.67428 16.4874C9.71072 16.4267 9.74716 16.3598 9.78967 16.2748C9.63784 16.1898 9.49816 16.1048 9.35848 16.0258C9.09126 15.8679 8.96371 15.6432 9.00622 15.3335C9.04873 15.0237 9.237 14.8355 9.53459 14.7565C10.3909 14.5318 11.2472 14.3132 12.1036 14.1006C12.4862 14.0034 12.8141 14.2342 12.9295 14.6715C13.1117 15.3821 13.2939 16.0926 13.4761 16.8093C13.5065 16.9429 13.5429 17.0704 13.5733 17.204C13.634 17.4834 13.5429 17.7142 13.3243 17.8781C13.0935 18.0543 12.8384 18.0664 12.5894 17.9207C12.4436 17.8417 12.304 17.7567 12.1279 17.6534C11.1622 19.2932 10.1966 20.9269 9.20665 22.6031C9.32811 22.6031 9.40098 22.6031 9.47993 22.6031C11.2655 22.6031 13.0449 22.6031 14.8304 22.6031C15.4499 22.6031 15.9843 23.0343 16.1301 23.6234C16.2819 24.2368 16.0086 24.8684 15.4499 25.1417C15.2556 25.2389 15.0187 25.2996 14.8061 25.2996C12.553 25.3117 10.2937 25.3117 8.04059 25.2996C7.07495 25.2996 6.28543 24.6498 6.06072 23.7084C6.04857 23.6659 6.03036 23.6295 6.01214 23.587C6.01214 23.3926 6.01214 23.1983 6.01214 23.0039H6Z" fill="white"/>
<path d="M22.6648 11.8718C22.8227 11.7747 22.9564 11.6896 23.0961 11.6168C23.3511 11.4831 23.6062 11.4831 23.837 11.6532C24.0617 11.8172 24.1589 12.0601 24.092 12.3273C23.8734 13.2201 23.6487 14.1189 23.4058 15.0056C23.3147 15.3396 22.9624 15.5218 22.6163 15.4307C21.7539 15.2121 20.8915 14.9813 20.0291 14.7566C19.7497 14.6837 19.5736 14.5076 19.5371 14.21C19.4946 13.9003 19.6161 13.6695 19.8833 13.5116C20.0291 13.4266 20.1809 13.3355 20.3449 13.2383C19.4096 11.6289 18.4743 10.0316 17.5208 8.39796C17.4662 8.48906 17.4237 8.55586 17.3812 8.62267C16.6342 9.90411 15.8872 11.1916 15.1341 12.467C14.715 13.1776 13.8769 13.3901 13.2149 12.965C12.6016 12.5642 12.4194 11.7868 12.802 11.1188C13.3729 10.1227 13.9559 9.13282 14.5328 8.14288C14.9337 7.45661 15.3284 6.76427 15.7293 6.078C16.5674 4.64472 18.4561 4.63865 19.2881 6.07192C20.3631 7.9121 21.432 9.75228 22.5009 11.5925C22.5495 11.6775 22.5981 11.7564 22.6588 11.8597L22.6648 11.8718Z" fill="white"/>
<path d="M20.8915 22.5911H25.8229C25.7744 22.5061 25.7379 22.4332 25.7015 22.3664C24.9241 21.0486 24.1407 19.7367 23.3572 18.4189C23.175 18.1091 23.0961 17.7812 23.1629 17.4289C23.2783 16.8641 23.6973 16.4511 24.2621 16.3479C24.7905 16.2507 25.3432 16.4997 25.6408 16.9917C26.2359 17.9816 26.819 18.9776 27.4081 19.9736C27.8575 20.7267 28.313 21.4798 28.7442 22.2389C29.4244 23.4292 28.8353 24.8747 27.5356 25.2269C27.3291 25.2816 27.1044 25.2998 26.8918 25.2998C24.9788 25.2998 23.0718 25.2998 21.1587 25.2998H20.8915C20.8915 25.5184 20.8915 25.7188 20.8915 25.9193C20.8915 26.2229 20.77 26.4658 20.4907 26.5873C20.1992 26.7209 19.938 26.642 19.7133 26.4173C19.0574 25.7674 18.4015 25.1237 17.7456 24.4678C17.4419 24.1641 17.4419 23.7754 17.7395 23.4657C18.3894 22.7976 19.0453 22.1417 19.6951 21.4737C19.9137 21.249 20.1749 21.1639 20.4725 21.2854C20.77 21.4069 20.8915 21.6498 20.8915 21.9656C20.8915 22.1599 20.8915 22.3543 20.8915 22.5729V22.5911Z" fill="white"/>
</svg>
